<svg xmlns="http://www.w3.org/2000/svg" width="805" height="600"><rect width="805" height="600" x="0" y="0" fill="#FFFFFF" id="backgorund"/><g transform="translate(20,20)" id="viz"><g id="nodes"><g transform="translate(383.5,281)"><path id="p_943.5" d="M-5.143516556418883e-14,280A280,280,0,1,1,5.143516556418883e-14,-280A280,280,0,1,1,-5.143516556418883e-14,280Z" fill="none" stroke="#ccc"/></g><g transform="translate(254.57628871782478,281)" id="ger"><path id="p_683.6737788490772" d="M-2.7388764607521336e-14,149.09749013125233A149.09749013125233,149.09749013125233,0,1,1,2.7388764607521336e-14,-149.09749013125233A149.09749013125233,149.09749013125233,0,1,1,-2.7388764607521336e-14,149.09749013125233Z" fill="rgb(254, 236, 160)" stroke="none"/></g><g transform="translate(533.5868894245385,281)" id="eng"><path id="p_941.5212014134275" d="M-2.3501151851746765e-14,127.93431198888901A127.93431198888901,127.93431198888901,0,1,1,2.3501151851746765e-14,-127.93431198888901A127.93431198888901,127.93431198888901,0,1,1,-2.3501151851746765e-14,127.93431198888901Z" fill="rgb(171, 15, 69)" stroke="none"/></g><g transform="translate(409.5538402462176,429.3906673753895)" id="fre"><path id="p_901.4325021427434" d="M-1.1662555391189153e-14,63.48799452113637A63.48799452113637,63.48799452113637,0,1,1,1.1662555391189153e-14,-63.48799452113637A63.48799452113637,63.48799452113637,0,1,1,-1.1662555391189153e-14,63.48799452113637Z" fill="rgb(254, 209, 128)" stroke="none"/></g><g transform="translate(407.7607261877506,167.04121513902624)" id="eng, ger"><path id="p_613.6499217052808" d="M-7.319955243453205e-15,39.84798037850393A39.84798037850393,39.84798037850393,0,1,1,7.319955243453205e-15,-39.84798037850393A39.84798037850393,39.84798037850393,0,1,1,-7.319955243453205e-15,39.84798037850393Z" fill="rgb(195, 43, 74)" stroke="none"/></g><g transform="translate(346.4829521914348,115.43807893657345)" id="eng, hger"><path id="p_499.2057323132353" d="M-7.032785514420175e-15,38.284701185227036A38.284701185227036,38.284701185227036,0,1,1,7.032785514420175e-15,-38.284701185227036A38.284701185227036,38.284701185227036,0,1,1,-7.032785514420175e-15,38.284701185227036Z" fill="rgb(224, 80, 74)" stroke="none"/></g><g transform="translate(473.54677091876283,127.45946261220712)" id="gre"><path id="p_634.9552242751259" d="M-6.4200254472391726e-15,34.94899074415603A34.94899074415603,34.94899074415603,0,1,1,6.4200254472391726e-15,-34.94899074415603A34.94899074415603,34.94899074415603,0,1,1,-6.4200254472391726e-15,34.94899074415603Z" fill="rgb(84, 171, 174)" stroke="none"/></g><g transform="translate(314.383233282941,455.254096440755)" id="eng, hund"><path id="p_801.7928535263989" d="M-6.090570914855082e-15,33.15552380270282A33.15552380270282,33.15552380270282,0,1,1,6.090570914855082e-15,-33.15552380270282A33.15552380270282,33.15552380270282,0,1,1,-6.090570914855082e-15,33.15552380270282Z" fill="rgb(250, 159, 92)" stroke="none"/></g><g transform="translate(505.72407652508605,439.74576684454854)" id="lat, gre"><path id="p_975.7291709892122" d="M-5.7422453269221115e-15,31.259327619577533A31.259327619577533,31.259327619577533,0,1,1,5.7422453269221115e-15,-31.259327619577533A31.259327619577533,31.259327619577533,0,1,1,-5.7422453269221115e-15,31.259327619577533Z" fill="rgb(94, 79, 162)" stroke="none"/></g><g transform="translate(409.7259384341139,100.53079497848665)" id="eng, fre"><path id="p_533.9694017634192" d="M-4.5396435291330165e-15,24.71266835081861A24.71266835081861,24.71266835081861,0,1,1,4.5396435291330165e-15,-24.71266835081861A24.71266835081861,24.71266835081861,0,1,1,-4.5396435291330165e-15,24.71266835081861Z" fill="rgb(183, 29, 72)" stroke="none"/></g><g transform="translate(284.32012725146745,110.39341597564109)" id="grc"><path id="p_415.8172257622437" d="M-4.060380609903389e-15,22.103682535135214A22.103682535135214,22.103682535135214,0,1,1,4.060380609903389e-15,-22.103682535135214A22.103682535135214,22.103682535135214,0,1,1,-4.060380609903389e-15,22.103682535135214Z" fill="rgb(156, 215, 163)" stroke="none"/></g><g transform="translate(450.18164875200307,73.24889411507138)" id="eng, hgrc"><path id="p_544.5342254022097" d="M-4.060380609903389e-15,22.103682535135214A22.103682535135214,22.103682535135214,0,1,1,4.060380609903389e-15,-22.103682535135214A22.103682535135214,22.103682535135214,0,1,1,-4.060380609903389e-15,22.103682535135214Z" fill="rgb(231, 92, 73)" stroke="none"/></g><g transform="translate(532.5584838302128,128.986685551681)" id="eng, hfre"><path id="p_682.6488519170291" d="M-4.060380609903389e-15,22.103682535135214A22.103682535135214,22.103682535135214,0,1,1,4.060380609903389e-15,-22.103682535135214A22.103682535135214,22.103682535135214,0,1,1,-4.060380609903389e-15,22.103682535135214Z" fill="rgb(216, 68, 75)" stroke="none"/></g><g transform="translate(260.2639563106063,451.123589211053)" id="ger, lat"><path id="p_729.5298961142729" d="M-3.5163927572100875e-15,19.142350592613518A19.142350592613518,19.142350592613518,0,1,1,3.5163927572100875e-15,-19.142350592613518A19.142350592613518,19.142350592613518,0,1,1,-3.5163927572100875e-15,19.142350592613518Z" fill="rgb(211, 237, 158)" stroke="none"/></g><g transform="translate(353.5591144859719,492.82013911161533)" id="eng, lat"><path id="p_864.5216041902007" d="M-3.5163927572100875e-15,19.142350592613518A19.142350592613518,19.142350592613518,0,1,1,3.5163927572100875e-15,-19.142350592613518A19.142350592613518,19.142350592613518,0,1,1,-3.5163927572100875e-15,19.142350592613518Z" fill="rgb(252, 173, 100)" stroke="none"/></g><g transform="translate(379.5151793067993,66.06271028662812)" id="grc, ger"><path id="p_463.720240186041" d="M-3.5163927572100875e-15,19.142350592613518A19.142350592613518,19.142350592613518,0,1,1,3.5163927572100875e-15,-19.142350592613518A19.142350592613518,19.142350592613518,0,1,1,-3.5163927572100875e-15,19.142350592613518Z" fill="rgb(125, 201, 166)" stroke="none"/></g><g transform="translate(475.43410110638877,482.48019955168195)" id="ger, hgrc"><path id="p_976.0566512506842" d="M-3.5163927572100875e-15,19.142350592613518A19.142350592613518,19.142350592613518,0,1,1,3.5163927572100875e-15,-19.142350592613518A19.142350592613518,19.142350592613518,0,1,1,-3.5163927572100875e-15,19.142350592613518Z" fill="rgb(245, 250, 174)" stroke="none"/></g><g transform="translate(556.8237091940432,428.2330829366385)" id="ger, hdan"><path id="p_1003.1991427232953" d="M-3.5163927572100875e-15,19.142350592613518A19.142350592613518,19.142350592613518,0,1,1,3.5163927572100875e-15,-19.142350592613518A19.142350592613518,19.142350592613518,0,1,1,-3.5163927572100875e-15,19.142350592613518Z" fill="rgb(249, 249, 176)" stroke="none"/></g><g transform="translate(241.1051264876399,111.31525420101804)" id="ger, hgre"><path id="p_370.56273128127145" d="M-3.5163927572100875e-15,19.142350592613518A19.142350592613518,19.142350592613518,0,1,1,3.5163927572100875e-15,-19.142350592613518A19.142350592613518,19.142350592613518,0,1,1,-3.5163927572100875e-15,19.142350592613518Z" fill="rgb(239, 248, 169)" stroke="none"/></g><g transform="translate(305.31504951357795,72.60983070453)" id="eng, hgre"><path id="p_396.06723081072147" d="M-3.5163927572100875e-15,19.142350592613518A19.142350592613518,19.142350592613518,0,1,1,3.5163927572100875e-15,-19.142350592613518A19.142350592613518,19.142350592613518,0,1,1,-3.5163927572100875e-15,19.142350592613518Z" fill="rgb(237, 104, 73)" stroke="none"/></g><g transform="translate(220.14625637474748,447.7002040837135)" id="eng, hlat"><path id="p_685.9888110510745" d="M-3.5163927572100875e-15,19.142350592613518A19.142350592613518,19.142350592613518,0,1,1,3.5163927572100875e-15,-19.142350592613518A19.142350592613518,19.142350592613518,0,1,1,-3.5163927572100875e-15,19.142350592613518Z" fill="rgb(246, 131, 79)" stroke="none"/></g><g transform="translate(570.6391058442186,140.25259350828154)" id="eng, grc, hgrc"><path id="p_725.5213631622889" d="M-2.871122663461056e-15,15.629663809788768A15.629663809788768,15.629663809788768,0,1,1,2.871122663461056e-15,-15.629663809788768A15.629663809788768,15.629663809788768,0,1,1,-2.871122663461056e-15,15.629663809788768Z" fill="rgb(206, 56, 75)" stroke="none"/></g><g transform="translate(387.3047459479371,507.3753654095408)" id="eng, hita"><path id="p_909.3097751672667" d="M-2.871122663461056e-15,15.629663809788768A15.629663809788768,15.629663809788768,0,1,1,2.871122663461056e-15,-15.629663809788768A15.629663809788768,15.629663809788768,0,1,1,-2.871122663461056e-15,15.629663809788768Z" fill="rgb(242, 117, 75)" stroke="none"/></g><g transform="translate(513.9836001605797,93.88642698112662)" id="eng, lat, hlat"><path id="p_622.4996909514952" d="M-2.871122663461056e-15,15.629663809788768A15.629663809788768,15.629663809788768,0,1,1,2.871122663461056e-15,-15.629663809788768A15.629663809788768,15.629663809788768,0,1,1,-2.871122663461056e-15,15.629663809788768Z" fill="rgb(253, 186, 109)" stroke="none"/></g><g transform="translate(343.3310377172651,59.63385714013856)" id="lat, eng"><path id="p_417.5945586671924" d="M-2.871122663461056e-15,15.629663809788768A15.629663809788768,15.629663809788768,0,1,1,2.871122663461056e-15,-15.629663809788768A15.629663809788768,15.629663809788768,0,1,1,-2.871122663461056e-15,15.629663809788768Z" fill="rgb(69, 119, 178)" stroke="none"/></g><g transform="translate(414.693271566921,55.42672982928602)" id="gre, eng"><path id="p_484.7496652059958" d="M-2.871122663461056e-15,15.629663809788768A15.629663809788768,15.629663809788768,0,1,1,2.871122663461056e-15,-15.629663809788768A15.629663809788768,15.629663809788768,0,1,1,-2.871122663461056e-15,15.629663809788768Z" fill="rgb(74, 159, 178)" stroke="none"/></g><g transform="translate(273.53543183690635,485.39442510260096)" id="ger, pol"><path id="p_773.5595207492961" d="M-2.871122663461056e-15,15.629663809788768A15.629663809788768,15.629663809788768,0,1,1,2.871122663461056e-15,-15.629663809788768A15.629663809788768,15.629663809788768,0,1,1,-2.871122663461056e-15,15.629663809788768Z" fill="rgb(199, 232, 159)" stroke="none"/></g><g transform="translate(489.83285492083536,71.04973418070313)" id="eng, rus"><path id="p_575.5122529113273" d="M-2.871122663461056e-15,15.629663809788768A15.629663809788768,15.629663809788768,0,1,1,2.871122663461056e-15,-15.629663809788768A15.629663809788768,15.629663809788768,0,1,1,-2.871122663461056e-15,15.629663809788768Z" fill="rgb(253, 198, 118)" stroke="none"/></g><g transform="translate(319.17358556790276,505.7915560109068)" id="lat, ger"><path id="p_839.5948053885984" d="M-2.871122663461056e-15,15.629663809788768A15.629663809788768,15.629663809788768,0,1,1,2.871122663461056e-15,-15.629663809788768A15.629663809788768,15.629663809788768,0,1,1,-2.871122663461056e-15,15.629663809788768Z" fill="rgb(75, 106, 174)" stroke="none"/></g><g transform="translate(444.6228909263027,502.51246309300825)" id="ger, hund"><path id="p_961.7650178290997" d="M-2.871122663461056e-15,15.629663809788768A15.629663809788768,15.629663809788768,0,1,1,2.871122663461056e-15,-15.629663809788768A15.629663809788768,15.629663809788768,0,1,1,-2.871122663461056e-15,15.629663809788768Z" fill="rgb(222, 242, 160)" stroke="none"/></g><g transform="translate(317.9975627692833,38.11669931769515)" id="lat"><path id="p_370.7439258967672" d="M-2.871122663461056e-15,15.629663809788768A15.629663809788768,15.629663809788768,0,1,1,2.871122663461056e-15,-15.629663809788768A15.629663809788768,15.629663809788768,0,1,1,-2.871122663461056e-15,15.629663809788768Z" fill="rgb(66, 132, 180)" stroke="none"/></g><g transform="translate(205.8180445198464,121.58385203854269)" id="ger, hlat"><path id="p_342.0315603681779" d="M-2.871122663461056e-15,15.629663809788768A15.629663809788768,15.629663809788768,0,1,1,2.871122663461056e-15,-15.629663809788768A15.629663809788768,15.629663809788768,0,1,1,-2.871122663461056e-15,15.629663809788768Z" fill="rgb(232, 246, 164)" stroke="none"/></g><g transform="translate(259.8586762878786,85.17322512566005)" id="grc, afre, hgrc"><path id="p_355.0837426811063" d="M-2.0301903049516944e-15,11.051841267567607A11.051841267567607,11.051841267567607,0,1,1,2.0301903049516944e-15,-11.051841267567607A11.051841267567607,11.051841267567607,0,1,1,-2.0301903049516944e-15,11.051841267567607Z" fill="rgb(140, 209, 164)" stroke="none"/></g><g transform="translate(273.91143019042846,65.61597570934961)" id="fre, ger"><path id="p_349.57924716734567" d="M-2.0301903049516944e-15,11.051841267567607A11.051841267567607,11.051841267567607,0,1,1,2.0301903049516944e-15,-11.051841267567607A11.051841267567607,11.051841267567607,0,1,1,-2.0301903049516944e-15,11.051841267567607Z" fill="rgb(254, 219, 138)" stroke="none"/></g><g transform="translate(415.9127437270354,505.64462303133485)" id="Not Found"><path id="p_931.6092080259378" d="M-2.0301903049516944e-15,11.051841267567607A11.051841267567607,11.051841267567607,0,1,1,2.0301903049516944e-15,-11.051841267567607A11.051841267567607,11.051841267567607,0,1,1,-2.0301903049516944e-15,11.051841267567607Z" fill="rgb(158, 1, 66)" stroke="none"/></g><g transform="translate(507.571307533671,483.99719570762466)" id="gmh"><path id="p_1001.6203445088634" d="M-2.0301903049516944e-15,11.051841267567607A11.051841267567607,11.051841267567607,0,1,1,2.0301903049516944e-15,-11.051841267567607A11.051841267567607,11.051841267567607,0,1,1,-2.0301903049516944e-15,11.051841267567607Z" fill="rgb(171, 221, 162)" stroke="none"/></g><g transform="translate(584.7943401611419,412.33512339494655)" id="fre, hrum"><path id="p_1007.1813048236561" d="M-2.0301903049516944e-15,11.051841267567607A11.051841267567607,11.051841267567607,0,1,1,2.0301903049516944e-15,-11.051841267567607A11.051841267567607,11.051841267567607,0,1,1,-2.0301903049516944e-15,11.051841267567607Z" fill="rgb(254, 228, 149)" stroke="none"/></g><g transform="translate(428.4752742701239,526.1908811658802)" id="grc, lat"><path id="p_964.7179967035718" d="M-2.0301903049516944e-15,11.051841267567607A11.051841267567607,11.051841267567607,0,1,1,2.0301903049516944e-15,-11.051841267567607A11.051841267567607,11.051841267567607,0,1,1,-2.0301903049516944e-15,11.051841267567607Z" fill="rgb(111, 193, 168)" stroke="none"/></g><g transform="translate(545.8570538475811,458.47930228383643)" id="grc,lat"><path id="p_1014.3881973989852" d="M-2.0301903049516944e-15,11.051841267567607A11.051841267567607,11.051841267567607,0,1,1,2.0301903049516944e-15,-11.051841267567607A11.051841267567607,11.051841267567607,0,1,1,-2.0301903049516944e-15,11.051841267567607Z" fill="rgb(97, 183, 171)" stroke="none"/></g><g transform="translate(192.72790596201807,430.8676352087118)" id="lat, grc"><path id="p_633.6473824382975" d="M-2.0301903049516944e-15,11.051841267567607A11.051841267567607,11.051841267567607,0,1,1,2.0301903049516944e-15,-11.051841267567607A11.051841267567607,11.051841267567607,0,1,1,-2.0301903049516944e-15,11.051841267567607Z" fill="rgb(84, 92, 168)" stroke="none"/></g><g transform="translate(290.63196153773913,508.3970701308832)" id="ger, grc"><path id="p_809.08087293619" d="M-2.0301903049516944e-15,11.051841267567607A11.051841267567607,11.051841267567607,0,1,1,2.0301903049516944e-15,-11.051841267567607A11.051841267567607,11.051841267567607,0,1,1,-2.0301903049516944e-15,11.051841267567607Z" fill="rgb(253, 242, 169)" stroke="none"/></g><g transform="translate(362.78137008927854,38.58397408281934)" id="ger, gre"><path id="p_411.4171854396655" d="M-2.0301903049516944e-15,11.051841267567607A11.051841267567607,11.051841267567607,0,1,1,2.0301903049516944e-15,-11.051841267567607A11.051841267567607,11.051841267567607,0,1,1,-2.0301903049516944e-15,11.051841267567607Z" fill="rgb(252, 247, 174)" stroke="none"/></g><g transform="translate(363.5456094342528,523.4039785196239)" id="gers"><path id="p_897.0014292214444" d="M-2.0301903049516944e-15,11.051841267567607A11.051841267567607,11.051841267567607,0,1,1,2.0301903049516944e-15,-11.051841267567607A11.051841267567607,11.051841267567607,0,1,1,-2.0301903049516944e-15,11.051841267567607Z" fill="rgb(185, 227, 160)" stroke="none"/></g><g transform="translate(542.6080145744857,95.32026991868784)" id="eng, hrus"><path id="p_647.9801257607411" d="M-2.0301903049516944e-15,11.051841267567607A11.051841267567607,11.051841267567607,0,1,1,2.0301903049516944e-15,-11.051841267567607A11.051841267567607,11.051841267567607,0,1,1,-2.0301903049516944e-15,11.051841267567607Z" fill="rgb(248, 145, 85)" stroke="none"/></g><g transform="translate(238.07132271069915,474.4171146674361)" id="gre, ger"><path id="p_722.5402786457029" d="M-2.0301903049516944e-15,11.051841267567607A11.051841267567607,11.051841267567607,0,1,1,2.0301903049516944e-15,-11.051841267567607A11.051841267567607,11.051841267567607,0,1,1,-2.0301903049516944e-15,11.051841267567607Z" fill="rgb(68, 146, 180)" stroke="none"/></g></g><g id="labels"><g transform="translate(254.57628871782478,281)"><text text-anchor="middle" dominant-baseline="text-before-edge" transform="translate(0,-5.55224609375)"><tspan x="0" y="0" dy="0" style="font-family: Arial, sans-serif; font-size: 10px; fill: black; font-weight: bold;">ger</tspan></text></g><g transform="translate(533.5868894245385,281)"><text text-anchor="middle" dominant-baseline="text-before-edge" transform="translate(0,-5.55224609375)"><tspan x="0" y="0" dy="0" style="font-family: Arial, sans-serif; font-size: 10px; fill: black; font-weight: bold;">eng</tspan></text></g><g transform="translate(409.5538402462176,429.3906673753895)"><text text-anchor="middle" dominant-baseline="text-before-edge" transform="translate(0,-5.55224609375)"><tspan x="0" y="0" dy="0" style="font-family: Arial, sans-serif; font-size: 10px; fill: black; font-weight: bold;">fre</tspan></text></g><g transform="translate(407.7607261877506,167.04121513902624)"><text text-anchor="middle" dominant-baseline="text-before-edge" transform="translate(0,-5.55224609375)"><tspan x="0" y="0" dy="0" style="font-family: Arial, sans-serif; font-size: 10px; fill: black; font-weight: bold;">eng, ger</tspan></text></g><g transform="translate(346.4829521914348,115.43807893657345)"><text text-anchor="middle" dominant-baseline="text-before-edge" transform="translate(0,-5.55224609375)"><tspan x="0" y="0" dy="0" style="font-family: Arial, sans-serif; font-size: 10px; fill: black; font-weight: bold;">eng, hger</tspan></text></g><g transform="translate(473.54677091876283,127.45946261220712)"><text text-anchor="middle" dominant-baseline="text-before-edge" transform="translate(0,-5.55224609375)"><tspan x="0" y="0" dy="0" style="font-family: Arial, sans-serif; font-size: 10px; fill: black; font-weight: bold;">gre</tspan></text></g><g transform="translate(314.383233282941,455.254096440755)"><text text-anchor="middle" dominant-baseline="text-before-edge" transform="translate(0,-5.55224609375)"><tspan x="0" y="0" dy="0" style="font-family: Arial, sans-serif; font-size: 10px; fill: black; font-weight: bold;">eng, hund</tspan></text></g><g transform="translate(505.72407652508605,439.74576684454854)"><text text-anchor="middle" dominant-baseline="text-before-edge" transform="translate(0,-5.55224609375)"><tspan x="0" y="0" dy="0" style="font-family: Arial, sans-serif; font-size: 10px; fill: black; font-weight: bold;">lat, gre</tspan></text></g><g transform="translate(409.7259384341139,100.53079497848665)"><text text-anchor="middle" dominant-baseline="text-before-edge" transform="translate(0,-5.55224609375)"><tspan x="0" y="0" dy="0" style="font-family: Arial, sans-serif; font-size: 10px; fill: black; font-weight: bold;">eng, fre</tspan></text></g><g transform="translate(284.32012725146745,110.39341597564109)"><text text-anchor="middle" dominant-baseline="text-before-edge" transform="translate(0,-5.55224609375)"><tspan x="0" y="0" dy="0" style="font-family: Arial, sans-serif; font-size: 10px; fill: black; font-weight: bold;">grc</tspan></text></g><g transform="translate(450.18164875200307,73.24889411507138)"><text text-anchor="middle" dominant-baseline="text-before-edge" transform="translate(0,-5.55224609375)"><tspan x="0" y="0" dy="0" style="font-family: Arial, sans-serif; font-size: 10px; fill: black; font-weight: bold;">eng, hgrc</tspan></text></g><g transform="translate(532.5584838302128,128.986685551681)"><text text-anchor="middle" dominant-baseline="text-before-edge" transform="translate(0,-5.55224609375)"><tspan x="0" y="0" dy="0" style="font-family: Arial, sans-serif; font-size: 10px; fill: black; font-weight: bold;">eng, hfre</tspan></text></g><g transform="translate(260.2639563106063,451.123589211053)"><text text-anchor="middle" dominant-baseline="text-before-edge" transform="translate(0,-5.55224609375)"><tspan x="0" y="0" dy="0" style="font-family: Arial, sans-serif; font-size: 10px; fill: black; font-weight: bold;">ger, lat</tspan></text></g><g transform="translate(353.5591144859719,492.82013911161533)"><text text-anchor="middle" dominant-baseline="text-before-edge" transform="translate(0,-5.55224609375)"><tspan x="0" y="0" dy="0" style="font-family: Arial, sans-serif; font-size: 10px; fill: black; font-weight: bold;">eng, lat</tspan></text></g><g transform="translate(379.5151793067993,66.06271028662812)"><text text-anchor="middle" dominant-baseline="text-before-edge" transform="translate(0,-5.55224609375)"><tspan x="0" y="0" dy="0" style="font-family: Arial, sans-serif; font-size: 10px; fill: black; font-weight: bold;">grc, ger</tspan></text></g><g transform="translate(475.43410110638877,482.48019955168195)"><text text-anchor="middle" dominant-baseline="text-before-edge" transform="translate(0,-5.55224609375)"><tspan x="0" y="0" dy="0" style="font-family: Arial, sans-serif; font-size: 10px; fill: black; font-weight: bold;">ger, hgrc</tspan></text></g><g transform="translate(556.8237091940432,428.2330829366385)"><text text-anchor="middle" dominant-baseline="text-before-edge" transform="translate(0,-5.55224609375)"><tspan x="0" y="0" dy="0" style="font-family: Arial, sans-serif; font-size: 10px; fill: black; font-weight: bold;">ger, hdan</tspan></text></g><g transform="translate(241.1051264876399,111.31525420101804)"><text text-anchor="middle" dominant-baseline="text-before-edge" transform="translate(0,-5.55224609375)"><tspan x="0" y="0" dy="0" style="font-family: Arial, sans-serif; font-size: 10px; fill: black; font-weight: bold;">ger, hgre</tspan></text></g><g transform="translate(305.31504951357795,72.60983070453)"><text text-anchor="middle" dominant-baseline="text-before-edge" transform="translate(0,-5.55224609375)"><tspan x="0" y="0" dy="0" style="font-family: Arial, sans-serif; font-size: 10px; fill: black; font-weight: bold;">eng, hgre</tspan></text></g><g transform="translate(220.14625637474748,447.7002040837135)"><text text-anchor="middle" dominant-baseline="text-before-edge" transform="translate(0,-5.55224609375)"><tspan x="0" y="0" dy="0" style="font-family: Arial, sans-serif; font-size: 10px; fill: black; font-weight: bold;">eng, hlat</tspan></text></g><g transform="translate(570.6391058442186,140.25259350828154)"><text text-anchor="middle" dominant-baseline="text-before-edge" transform="translate(0,-5.55224609375)"><tspan x="0" y="0" dy="0" style="font-family: Arial, sans-serif; font-size: 10px; fill: black; font-weight: bold;">eng, grc, hgrc</tspan></text></g><g transform="translate(387.3047459479371,507.3753654095408)"><text text-anchor="middle" dominant-baseline="text-before-edge" transform="translate(0,-5.55224609375)"><tspan x="0" y="0" dy="0" style="font-family: Arial, sans-serif; font-size: 10px; fill: black; font-weight: bold;">eng, hita</tspan></text></g><g transform="translate(513.9836001605797,93.88642698112662)"><text text-anchor="middle" dominant-baseline="text-before-edge" transform="translate(0,-5.55224609375)"><tspan x="0" y="0" dy="0" style="font-family: Arial, sans-serif; font-size: 10px; fill: black; font-weight: bold;">eng, lat, hlat</tspan></text></g><g transform="translate(343.3310377172651,59.63385714013856)"><text text-anchor="middle" dominant-baseline="text-before-edge" transform="translate(0,-5.55224609375)"><tspan x="0" y="0" dy="0" style="font-family: Arial, sans-serif; font-size: 10px; fill: black; font-weight: bold;">lat, eng</tspan></text></g><g transform="translate(414.693271566921,55.42672982928602)"><text text-anchor="middle" dominant-baseline="text-before-edge" transform="translate(0,-5.55224609375)"><tspan x="0" y="0" dy="0" style="font-family: Arial, sans-serif; font-size: 10px; fill: black; font-weight: bold;">gre, eng</tspan></text></g><g transform="translate(273.53543183690635,485.39442510260096)"><text text-anchor="middle" dominant-baseline="text-before-edge" transform="translate(0,-5.55224609375)"><tspan x="0" y="0" dy="0" style="font-family: Arial, sans-serif; font-size: 10px; fill: black; font-weight: bold;">ger, pol</tspan></text></g><g transform="translate(489.83285492083536,71.04973418070313)"><text text-anchor="middle" dominant-baseline="text-before-edge" transform="translate(0,-5.55224609375)"><tspan x="0" y="0" dy="0" style="font-family: Arial, sans-serif; font-size: 10px; fill: black; font-weight: bold;">eng, rus</tspan></text></g><g transform="translate(319.17358556790276,505.7915560109068)"><text text-anchor="middle" dominant-baseline="text-before-edge" transform="translate(0,-5.55224609375)"><tspan x="0" y="0" dy="0" style="font-family: Arial, sans-serif; font-size: 10px; fill: black; font-weight: bold;">lat, ger</tspan></text></g><g transform="translate(444.6228909263027,502.51246309300825)"><text text-anchor="middle" dominant-baseline="text-before-edge" transform="translate(0,-5.55224609375)"><tspan x="0" y="0" dy="0" style="font-family: Arial, sans-serif; font-size: 10px; fill: black; font-weight: bold;">ger, hund</tspan></text></g><g transform="translate(317.9975627692833,38.11669931769515)"><text text-anchor="middle" dominant-baseline="text-before-edge" transform="translate(0,-5.55224609375)"><tspan x="0" y="0" dy="0" style="font-family: Arial, sans-serif; font-size: 10px; fill: black; font-weight: bold;">lat</tspan></text></g><g transform="translate(205.8180445198464,121.58385203854269)"><text text-anchor="middle" dominant-baseline="text-before-edge" transform="translate(0,-5.55224609375)"><tspan x="0" y="0" dy="0" style="font-family: Arial, sans-serif; font-size: 10px; fill: black; font-weight: bold;">ger, hlat</tspan></text></g><g transform="translate(259.8586762878786,85.17322512566005)"><text text-anchor="middle" dominant-baseline="text-before-edge" transform="translate(0,-5.55224609375)"><tspan x="0" y="0" dy="0" style="font-family: Arial, sans-serif; font-size: 10px; fill: black; font-weight: bold;">grc, afre, hgrc</tspan></text></g><g transform="translate(273.91143019042846,65.61597570934961)"><text text-anchor="middle" dominant-baseline="text-before-edge" transform="translate(0,-5.55224609375)"><tspan x="0" y="0" dy="0" style="font-family: Arial, sans-serif; font-size: 10px; fill: black; font-weight: bold;">fre, ger</tspan></text></g><g transform="translate(415.9127437270354,505.64462303133485)"><text text-anchor="middle" dominant-baseline="text-before-edge" transform="translate(0,-5.55224609375)"><tspan x="0" y="0" dy="0" style="font-family: Arial, sans-serif; font-size: 10px; fill: black; font-weight: bold;">Not Found</tspan></text></g><g transform="translate(507.571307533671,483.99719570762466)"><text text-anchor="middle" dominant-baseline="text-before-edge" transform="translate(0,-5.55224609375)"><tspan x="0" y="0" dy="0" style="font-family: Arial, sans-serif; font-size: 10px; fill: black; font-weight: bold;">gmh</tspan></text></g><g transform="translate(584.7943401611419,412.33512339494655)"><text text-anchor="middle" dominant-baseline="text-before-edge" transform="translate(0,-5.55224609375)"><tspan x="0" y="0" dy="0" style="font-family: Arial, sans-serif; font-size: 10px; fill: black; font-weight: bold;">fre, hrum</tspan></text></g><g transform="translate(428.4752742701239,526.1908811658802)"><text text-anchor="middle" dominant-baseline="text-before-edge" transform="translate(0,-5.55224609375)"><tspan x="0" y="0" dy="0" style="font-family: Arial, sans-serif; font-size: 10px; fill: black; font-weight: bold;">grc, lat</tspan></text></g><g transform="translate(545.8570538475811,458.47930228383643)"><text text-anchor="middle" dominant-baseline="text-before-edge" transform="translate(0,-5.55224609375)"><tspan x="0" y="0" dy="0" style="font-family: Arial, sans-serif; font-size: 10px; fill: black; font-weight: bold;">grc,lat</tspan></text></g><g transform="translate(192.72790596201807,430.8676352087118)"><text text-anchor="middle" dominant-baseline="text-before-edge" transform="translate(0,-5.55224609375)"><tspan x="0" y="0" dy="0" style="font-family: Arial, sans-serif; font-size: 10px; fill: black; font-weight: bold;">lat, grc</tspan></text></g><g transform="translate(290.63196153773913,508.3970701308832)"><text text-anchor="middle" dominant-baseline="text-before-edge" transform="translate(0,-5.55224609375)"><tspan x="0" y="0" dy="0" style="font-family: Arial, sans-serif; font-size: 10px; fill: black; font-weight: bold;">ger, grc</tspan></text></g><g transform="translate(362.78137008927854,38.58397408281934)"><text text-anchor="middle" dominant-baseline="text-before-edge" transform="translate(0,-5.55224609375)"><tspan x="0" y="0" dy="0" style="font-family: Arial, sans-serif; font-size: 10px; fill: black; font-weight: bold;">ger, gre</tspan></text></g><g transform="translate(363.5456094342528,523.4039785196239)"><text text-anchor="middle" dominant-baseline="text-before-edge" transform="translate(0,-5.55224609375)"><tspan x="0" y="0" dy="0" style="font-family: Arial, sans-serif; font-size: 10px; fill: black; font-weight: bold;">gers</tspan></text></g><g transform="translate(542.6080145744857,95.32026991868784)"><text text-anchor="middle" dominant-baseline="text-before-edge" transform="translate(0,-5.55224609375)"><tspan x="0" y="0" dy="0" style="font-family: Arial, sans-serif; font-size: 10px; fill: black; font-weight: bold;">eng, hrus</tspan></text></g><g transform="translate(238.07132271069915,474.4171146674361)"><text text-anchor="middle" dominant-baseline="text-before-edge" transform="translate(0,-5.55224609375)"><tspan x="0" y="0" dy="0" style="font-family: Arial, sans-serif; font-size: 10px; fill: black; font-weight: bold;">gre, ger</tspan></text></g></g></g></svg>