<svg xmlns="http://www.w3.org/2000/svg" xmlns:xlink="http://www.w3.org/1999/xlink" xmlns:lucid="lucid" width="1870.87" height="1322.83"><g transform="translate(0 0)" lucid:page-tab-id="YhFeCXBbpgKA"><path d="M0 0h1870.87v1322.83H0z" fill="#fff"/><path d="M940 539.42a8 8 0 0 1 8-8h164a8 8 0 0 1 8 8v216a8 8 0 0 1-8 8H948a8 8 0 0 1-8-8z" fill="#fff"/><path d="M940 603.42v33h180v-33M940 667.42v33h180v-33M940 731.42v24a8 8 0 0 0 8 8h164a8 8 0 0 0 8-8v-24" fill="#e6e6e6"/><path d="M940 571.42v-32a8 8 0 0 1 8-8h164a8 8 0 0 1 8 8v32" fill="#ccc"/><path d="M940 539.42a8 8 0 0 1 8-8h164a8 8 0 0 1 8 8v216a8 8 0 0 1-8 8H948a8 8 0 0 1-8-8zM940 571.42h180" stroke="#333" fill="none"/><use xlink:href="#a" transform="matrix(1,0,0,1,950,531.4173228346456) translate(38.025 23.6)"/><use xlink:href="#b" transform="matrix(1,0,0,1,945,573.9173228346456) translate(78.025 17.1)"/><use xlink:href="#c" transform="matrix(1,0,0,1,945,605.9173228346456) translate(56.025 17.1)"/><use xlink:href="#d" transform="matrix(1,0,0,1,945,605.9173228346456) translate(100.025 17.1)"/><use xlink:href="#e" transform="matrix(1,0,0,1,945,637.9173228346456) translate(68 17.1)"/><use xlink:href="#f" transform="matrix(1,0,0,1,945,669.9173228346456) translate(54.05 17.1)"/><use xlink:href="#g" transform="matrix(1,0,0,1,945,701.9173228346456) translate(30.049999999999997 17.1)"/><use xlink:href="#h" transform="matrix(1,0,0,1,945,701.9173228346456) translate(110.95 17.1)"/><use xlink:href="#i" transform="matrix(1,0,0,1,945,733.9173228346456) translate(34.6 17.1)"/><path d="M1219.5 419.42a8 8 0 0 1 8-8h184a8 8 0 0 1 8 8v88a8 8 0 0 1-8 8h-184a8 8 0 0 1-8-8z" fill="#fff"/><path d="M1219.5 483.42v24a8 8 0 0 0 8 8h184a8 8 0 0 0 8-8v-24" fill="#e3fae3"/><path d="M1219.5 451.42v-32a8 8 0 0 1 8-8h184a8 8 0 0 1 8 8v32" fill="#c3f7c8"/><path d="M1219.5 419.42a8 8 0 0 1 8-8h184a8 8 0 0 1 8 8v88a8 8 0 0 1-8 8h-184a8 8 0 0 1-8-8zM1219.5 451.42h200" stroke="#333" fill="none"/><use xlink:href="#f" transform="matrix(1,0,0,1,1229.5,411.4173228346456) translate(59.05 23.6)"/><use xlink:href="#j" transform="matrix(1,0,0,1,1224.5,453.9173228346456) translate(30.549999999999997 17.1)"/><use xlink:href="#k" transform="matrix(1,0,0,1,1224.5,453.9173228346456) translate(75.55 17.1)"/><use xlink:href="#c" transform="matrix(1,0,0,1,1224.5,485.9173228346456) translate(31.049999999999997 17.1)"/><use xlink:href="#k" transform="matrix(1,0,0,1,1224.5,485.9173228346456) translate(75.05 17.1)"/><path d="M1579.5 219.42a8 8 0 0 1 8-8h184a8 8 0 0 1 8 8v56a8 8 0 0 1-8 8h-184a8 8 0 0 1-8-8z" fill="#fff"/><path d="M1579.5 251.42v-32a8 8 0 0 1 8-8h184a8 8 0 0 1 8 8v32" fill="#c3f7c8"/><path d="M1579.5 219.42a8 8 0 0 1 8-8h184a8 8 0 0 1 8 8v56a8 8 0 0 1-8 8h-184a8 8 0 0 1-8-8zM1579.5 251.42h200" stroke="#333" fill="none"/><use xlink:href="#j" transform="matrix(1,0,0,1,1589.5,211.41732283464557) translate(25.549999999999997 23.6)"/><use xlink:href="#k" transform="matrix(1,0,0,1,1589.5,211.41732283464557) translate(70.55 23.6)"/><use xlink:href="#e" transform="matrix(1,0,0,1,1584.5,253.91732283464557) translate(78 17.1)"/><path d="M1579.5 379.42a8 8 0 0 1 8-8h184a8 8 0 0 1 8 8v88a8 8 0 0 1-8 8h-184a8 8 0 0 1-8-8z" fill="#fff"/><path d="M1579.5 443.42v24a8 8 0 0 0 8 8h184a8 8 0 0 0 8-8v-24" fill="#e3fae3"/><path d="M1579.5 411.42v-32a8 8 0 0 1 8-8h184a8 8 0 0 1 8 8v32" fill="#c3f7c8"/><path d="M1579.5 379.42a8 8 0 0 1 8-8h184a8 8 0 0 1 8 8v88a8 8 0 0 1-8 8h-184a8 8 0 0 1-8-8zM1579.5 411.42h200" stroke="#333" fill="none"/><use xlink:href="#c" transform="matrix(1,0,0,1,1589.5,371.4173228346456) translate(26.049999999999997 23.6)"/><use xlink:href="#k" transform="matrix(1,0,0,1,1589.5,371.4173228346456) translate(70.05 23.6)"/><use xlink:href="#e" transform="matrix(1,0,0,1,1584.5,413.9173228346456) translate(78 17.1)"/><use xlink:href="#l" transform="matrix(1,0,0,1,1584.5,445.9173228346456) translate(70.5 17.1)"/><path d="M1120.97 683.6h186.53a12 12 0 0 0 12-12V516.37" stroke="#333" fill="none"/><path d="M1120.98 684.1h-.5v-1h.5zM1320 516.38h-1v-.5h1z" stroke="#333" stroke-width=".05" fill="#333"/><path d="M1420.46 467.44h67.03a12 12 0 0 0 12-12v-212.1a12 12 0 0 1 12-12h67.02" stroke="#333" fill="none"/><path d="M1420.47 467.94h-.5v-1h.5zM1579.02 231.84h-.5v-1h.5z" stroke="#333" stroke-width=".05" fill="#333"/><path d="M1420.5 499.6h87a12 12 0 0 0 12-12v-84.34a12 12 0 0 1 12-12h47" stroke="#333" fill="none"/><path d="M1420.5 500.1h-.5v-1h.5zM1579 391.76h-.5v-1h.5z" stroke="#333" stroke-width=".05" fill="#333"/><path d="M1420 703.8a8 8 0 0 1 8-8h184a8 8 0 0 1 8 8v152a8 8 0 0 1-8 8h-184a8 8 0 0 1-8-8z" fill="#fff"/><path d="M1420 767.8v33h200v-33M1420 831.8v24a8 8 0 0 0 8 8h184a8 8 0 0 0 8-8v-24" fill="#fff0f0"/><path d="M1420 735.8v-32a8 8 0 0 1 8-8h184a8 8 0 0 1 8 8v32" fill="#ffd9d9"/><path d="M1420 703.8a8 8 0 0 1 8-8h184a8 8 0 0 1 8 8v152a8 8 0 0 1-8 8h-184a8 8 0 0 1-8-8zM1420 735.8h200" stroke="#333" fill="none"/><use xlink:href="#g" transform="matrix(1,0,0,1,1430,695.7951006124233) translate(35.05 23.6)"/><use xlink:href="#h" transform="matrix(1,0,0,1,1430,695.7951006124233) translate(115.95 23.6)"/><use xlink:href="#b" transform="matrix(1,0,0,1,1425,738.2951006124233) translate(88.025 17.1)"/><use xlink:href="#m" transform="matrix(1,0,0,1,1425,770.2951006124233) translate(80.5 17.1)"/><use xlink:href="#n" transform="matrix(1,0,0,1,1425,802.2951006124233) translate(39.05 17.1)"/><use xlink:href="#o" transform="matrix(1,0,0,1,1425,802.2951006124233) translate(128 17.1)"/><use xlink:href="#p" transform="matrix(1,0,0,1,1425,834.2951006124233) translate(58.025 17.1)"/><path d="M1120.98 715.78h149l.02.02h149" stroke="#333" fill="none"/><path d="M1121 716.28h-.52v-1h.5zM1419.5 716.3h-.5v-1h.5z" stroke="#333" stroke-width=".05" fill="#333"/><path d="M1121 747.97h57a12 12 0 0 1 12 12v31.95a12 12 0 0 1-12 12h-136a12 12 0 0 1-12-12v-27.55" stroke="#333" fill="none"/><path d="M1121 747.47v1h-.5v-1zM1030.5 764.38h-1v-.5h1z" stroke="#333" stroke-width=".05" fill="#333"/><path d="M1060 899.42a8 8 0 0 1 8-8h184a8 8 0 0 1 8 8v88a8 8 0 0 1-8 8h-184a8 8 0 0 1-8-8z" fill="#fff"/><path d="M1060 963.42v24a8 8 0 0 0 8 8h184a8 8 0 0 0 8-8v-24" fill="#fcfcca"/><path d="M1060 931.42v-32a8 8 0 0 1 8-8h184a8 8 0 0 1 8 8v32" fill="#fff7a1"/><path d="M1060 899.42a8 8 0 0 1 8-8h184a8 8 0 0 1 8 8v88a8 8 0 0 1-8 8h-184a8 8 0 0 1-8-8zM1060 931.42h200" stroke="#333" fill="none"/><use xlink:href="#q" transform="matrix(1,0,0,1,1070,891.4173228346456) translate(1.5999999999999943 23.6)"/><use xlink:href="#r" transform="matrix(1,0,0,1,1070,891.4173228346456) translate(40.599999999999994 23.6)"/><use xlink:href="#s" transform="matrix(1,0,0,1,1070,891.4173228346456) translate(138.45000000000002 23.6)"/><use xlink:href="#b" transform="matrix(1,0,0,1,1065,933.9173228346456) translate(88.025 17.1)"/><use xlink:href="#e" transform="matrix(1,0,0,1,1065,965.9173228346456) translate(78 17.1)"/><path d="M560 599.42a8 8 0 0 1 8-8h184a8 8 0 0 1 8 8v120a8 8 0 0 1-8 8H568a8 8 0 0 1-8-8z" fill="#fff"/><path d="M560 663.42v33h200v-33" fill="#f2f2ff"/><path d="M560 631.42v-32a8 8 0 0 1 8-8h184a8 8 0 0 1 8 8v32" fill="#dedeff"/><path d="M560 599.42a8 8 0 0 1 8-8h184a8 8 0 0 1 8 8v120a8 8 0 0 1-8 8H568a8 8 0 0 1-8-8zM560 631.42h200" stroke="#333" fill="none"/><use xlink:href="#q" transform="matrix(1,0,0,1,570,591.4173228346456) translate(24.57499999999999 23.6)"/><use xlink:href="#t" transform="matrix(1,0,0,1,570,591.4173228346456) translate(63.57499999999999 23.6)"/><use xlink:href="#s" transform="matrix(1,0,0,1,570,591.4173228346456) translate(115.475 23.6)"/><use xlink:href="#b" transform="matrix(1,0,0,1,565,633.9173228346456) translate(88.025 17.1)"/><use xlink:href="#u" transform="matrix(1,0,0,1,565,665.9173228346456) translate(78 17.1)"/><use xlink:href="#v" transform="matrix(1,0,0,1,565,697.9173228346456) translate(69.05 17.1)"/><path d="M760.9 611.22H838a12 12 0 0 1 12 12v7.73a12 12 0 0 0 12 12h77.05" stroke="#333" fill="none"/><path d="M760.92 611.72h-.5v-1h.5zM939.55 643.45h-.52v-1h.52z" stroke="#333" stroke-width=".05" fill="#333"/><path d="M1059 911.26H862a12 12 0 0 1-12-12V671.43a12 12 0 0 1 12-12h77.05" stroke="#333" fill="none"/><path d="M1059.5 910.76v1h-.5v-1zM939.55 659.93h-.5v-1h.5z" stroke="#333" stroke-width=".05" fill="#333"/><path d="M380 795.42a8 8 0 0 1 8-8h184a8 8 0 0 1 8 8v88a8 8 0 0 1-8 8H388a8 8 0 0 1-8-8z" fill="#fff"/><path d="M380 859.42v24a8 8 0 0 0 8 8h184a8 8 0 0 0 8-8v-24" fill="#fff3d9"/><path d="M380 827.42v-32a8 8 0 0 1 8-8h184a8 8 0 0 1 8 8v32" fill="#ffdda6"/><path d="M380 795.42a8 8 0 0 1 8-8h184a8 8 0 0 1 8 8v88a8 8 0 0 1-8 8H388a8 8 0 0 1-8-8zM380 827.42h200" stroke="#333" fill="none"/><use xlink:href="#q" transform="matrix(1,0,0,1,390,787.4173228346456) translate(44.075 23.6)"/><use xlink:href="#w" transform="matrix(1,0,0,1,390,787.4173228346456) translate(83.075 23.6)"/><use xlink:href="#b" transform="matrix(1,0,0,1,385,829.9173228346456) translate(88.025 17.1)"/><use xlink:href="#e" transform="matrix(1,0,0,1,385,861.9173228346456) translate(78 17.1)"/><path d="M480 786.47v-86.3a12 12 0 0 1 12-12h67.07" stroke="#333" fill="none"/><path d="M480.5 786.97h-1v-.52h1zM559.57 688.66h-.5v-1h.5z" stroke="#333" stroke-width=".05" fill="#333"/><path d="M140 963.42a8 8 0 0 1 8-8h184a8 8 0 0 1 8 8v184a8 8 0 0 1-8 8H148a8 8 0 0 1-8-8z" fill="#fff"/><path d="M140 1027.42v33h200v-33M140 1091.42v33h200v-33" fill="#fff3d9"/><path d="M140 995.42v-32a8 8 0 0 1 8-8h184a8 8 0 0 1 8 8v32" fill="#ffdda6"/><path d="M140 963.42a8 8 0 0 1 8-8h184a8 8 0 0 1 8 8v184a8 8 0 0 1-8 8H148a8 8 0 0 1-8-8zM140 995.42h200" stroke="#333" fill="none"/><use xlink:href="#q" transform="matrix(1,0,0,1,150,955.4173228346456) translate(32.55 23.6)"/><use xlink:href="#x" transform="matrix(1,0,0,1,150,955.4173228346456) translate(71.55 23.6)"/><use xlink:href="#b" transform="matrix(1,0,0,1,145,997.9173228346456) translate(88.025 17.1)"/><use xlink:href="#m" transform="matrix(1,0,0,1,145,1029.9173228346456) translate(80.5 17.1)"/><use xlink:href="#y" transform="matrix(1,0,0,1,145,1061.9173228346456) translate(55.025 17.1)"/><use xlink:href="#h" transform="matrix(1,0,0,1,145,1061.9173228346456) translate(105.975 17.1)"/><use xlink:href="#p" transform="matrix(1,0,0,1,145,1093.9173228346456) translate(58.025 17.1)"/><use xlink:href="#z" transform="matrix(1,0,0,1,145,1125.9173228346456) translate(61.05 17.1)"/><path d="M380 979.42a8 8 0 0 1 8-8h184a8 8 0 0 1 8 8v184a8 8 0 0 1-8 8H388a8 8 0 0 1-8-8z" fill="#fff"/><path d="M380 1043.42v33h200v-33M380 1107.42v33h200v-33" fill="#fff3d9"/><path d="M380 1011.42v-32a8 8 0 0 1 8-8h184a8 8 0 0 1 8 8v32" fill="#ffdda6"/><path d="M380 979.42a8 8 0 0 1 8-8h184a8 8 0 0 1 8 8v184a8 8 0 0 1-8 8H388a8 8 0 0 1-8-8zM380 1011.42h200" stroke="#333" fill="none"/><use xlink:href="#q" transform="matrix(1,0,0,1,390,971.4173228346456) translate(2.0999999999999943 23.6)"/><use xlink:href="#A" transform="matrix(1,0,0,1,390,971.4173228346456) translate(41.099999999999994 23.6)"/><use xlink:href="#B" transform="matrix(1,0,0,1,390,971.4173228346456) translate(104 23.6)"/><use xlink:href="#b" transform="matrix(1,0,0,1,385,1013.9173228346456) translate(88.025 17.1)"/><use xlink:href="#m" transform="matrix(1,0,0,1,385,1045.9173228346456) translate(80.5 17.1)"/><use xlink:href="#p" transform="matrix(1,0,0,1,385,1077.9173228346456) translate(58.025 17.1)"/><use xlink:href="#z" transform="matrix(1,0,0,1,385,1109.9173228346456) translate(61.05 17.1)"/><use xlink:href="#C" transform="matrix(1,0,0,1,385,1141.9173228346456) translate(56.05 17.1)"/><path d="M480 892.37v78.1" stroke="#333" fill="none"/><path d="M480.5 892.38h-1v-.5h1zM480.5 970.97h-1v-.52h1z" stroke="#333" stroke-width=".05" fill="#333"/><path d="M620 979.42a8 8 0 0 1 8-8h184a8 8 0 0 1 8 8v152a8 8 0 0 1-8 8H628a8 8 0 0 1-8-8z" fill="#fff"/><path d="M620 1043.42v33h200v-33M620 1107.42v24a8 8 0 0 0 8 8h184a8 8 0 0 0 8-8v-24" fill="#fff3d9"/><path d="M620 1011.42v-32a8 8 0 0 1 8-8h184a8 8 0 0 1 8 8v32" fill="#ffdda6"/><path d="M620 979.42a8 8 0 0 1 8-8h184a8 8 0 0 1 8 8v152a8 8 0 0 1-8 8H628a8 8 0 0 1-8-8zM620 1011.42h200" stroke="#333" fill="none"/><use xlink:href="#q" transform="matrix(1,0,0,1,630,971.4173228346456) translate(21.075000000000003 23.6)"/><use xlink:href="#D" transform="matrix(1,0,0,1,630,971.4173228346456) translate(60.075 23.6)"/><use xlink:href="#b" transform="matrix(1,0,0,1,625,1013.9173228346456) translate(88.025 17.1)"/><use xlink:href="#m" transform="matrix(1,0,0,1,625,1045.9173228346456) translate(80.5 17.1)"/><use xlink:href="#p" transform="matrix(1,0,0,1,625,1077.9173228346456) translate(58.025 17.1)"/><use xlink:href="#z" transform="matrix(1,0,0,1,625,1109.9173228346456) translate(61.05 17.1)"/><path d="M720 970.47v-17.05a12 12 0 0 0-12-12H562.3a12 12 0 0 1-12-12v-37.1" stroke="#333" fill="none"/><path d="M720.5 970.97h-1v-.52h1zM550.8 892.34h-1v-.5h1z" stroke="#333" stroke-width=".05" fill="#333"/><path d="M100 659.42a8 8 0 0 1 8-8h184a8 8 0 0 1 8 8v152a8 8 0 0 1-8 8H108a8 8 0 0 1-8-8z" fill="#fff"/><path d="M100 723.42v33h200v-33M100 787.42v24a8 8 0 0 0 8 8h184a8 8 0 0 0 8-8v-24" fill="#fff3d9"/><path d="M100 691.42v-32a8 8 0 0 1 8-8h184a8 8 0 0 1 8 8v32" fill="#ffdda6"/><path d="M100 659.42a8 8 0 0 1 8-8h184a8 8 0 0 1 8 8v152a8 8 0 0 1-8 8H108a8 8 0 0 1-8-8zM100 691.42h200" stroke="#333" fill="none"/><use xlink:href="#q" transform="matrix(1,0,0,1,110,651.4173228346456) translate(29.074999999999996 23.6)"/><use xlink:href="#E" transform="matrix(1,0,0,1,110,651.4173228346456) translate(68.07499999999999 23.6)"/><use xlink:href="#b" transform="matrix(1,0,0,1,105,693.9173228346456) translate(88.025 17.1)"/><use xlink:href="#m" transform="matrix(1,0,0,1,105,725.9173228346456) translate(80.5 17.1)"/><use xlink:href="#p" transform="matrix(1,0,0,1,105,757.9173228346456) translate(58.025 17.1)"/><use xlink:href="#z" transform="matrix(1,0,0,1,105,789.9173228346456) translate(61.05 17.1)"/><path d="M240 954.47V898.8a12 12 0 0 1 12-12h127.73" stroke="#333" fill="none"/><path d="M240.5 954.97h-1v-.52h1zM380.43 887.28v.02h-.72v-1h.32z" stroke="#333" stroke-width=".05" fill="#333"/><path d="M300.9 671.42H328a12 12 0 0 1 12 12v180.15a12 12 0 0 0 12 12h27.1" stroke="#333" fill="none"/><path d="M300.92 671.92h-.5v-1h.5zM379.6 876.07h-.52v-1h.5z" stroke="#333" stroke-width=".05" fill="#333"/><path d="M420 379.42a8 8 0 0 1 8-8h184a8 8 0 0 1 8 8v88a8 8 0 0 1-8 8H428a8 8 0 0 1-8-8z" fill="#fff"/><path d="M420 443.42v24a8 8 0 0 0 8 8h184a8 8 0 0 0 8-8v-24" fill="#edf5ff"/><path d="M420 411.42v-32a8 8 0 0 1 8-8h184a8 8 0 0 1 8 8v32" fill="#cfe4ff"/><path d="M420 379.42a8 8 0 0 1 8-8h184a8 8 0 0 1 8 8v88a8 8 0 0 1-8 8H428a8 8 0 0 1-8-8zM420 411.42h200" stroke="#333" fill="none"/><use xlink:href="#q" transform="matrix(1,0,0,1,430,371.4173228346456) translate(26.099999999999994 23.6)"/><use xlink:href="#F" transform="matrix(1,0,0,1,430,371.4173228346456) translate(65.1 23.6)"/><use xlink:href="#b" transform="matrix(1,0,0,1,425,413.9173228346456) translate(88.025 17.1)"/><use xlink:href="#e" transform="matrix(1,0,0,1,425,445.9173228346456) translate(78 17.1)"/><path d="M120 379.42a8 8 0 0 1 8-8h184a8 8 0 0 1 8 8v88a8 8 0 0 1-8 8H128a8 8 0 0 1-8-8z" fill="#fff"/><path d="M120 443.42v24a8 8 0 0 0 8 8h184a8 8 0 0 0 8-8v-24" fill="#edf5ff"/><path d="M120 411.42v-32a8 8 0 0 1 8-8h184a8 8 0 0 1 8 8v32" fill="#cfe4ff"/><path d="M120 379.42a8 8 0 0 1 8-8h184a8 8 0 0 1 8 8v88a8 8 0 0 1-8 8H128a8 8 0 0 1-8-8zM120 411.42h200" stroke="#333" fill="none"/><use xlink:href="#q" transform="matrix(1,0,0,1,130,371.4173228346456) translate(33.55 23.6)"/><use xlink:href="#G" transform="matrix(1,0,0,1,130,371.4173228346456) translate(72.55 23.6)"/><use xlink:href="#H" transform="matrix(1,0,0,1,130,371.4173228346456) translate(106.55 23.6)"/><use xlink:href="#b" transform="matrix(1,0,0,1,125,413.9173228346456) translate(88.025 17.1)"/><use xlink:href="#I" transform="matrix(1,0,0,1,125,445.9173228346456) translate(77.05 17.1)"/><path d="M419.1 459.57H382a12 12 0 0 1-12-12v-44.13a12 12 0 0 0-12-12h-37.08" stroke="#333" fill="none"/><path d="M419.6 460.07h-.52v-1h.5zM320.93 391.94h-.5v-1h.5z" stroke="#333" stroke-width=".05" fill="#333"/><path d="M700 159.42a8 8 0 0 1 8-8h184a8 8 0 0 1 8 8v88a8 8 0 0 1-8 8H708a8 8 0 0 1-8-8z" fill="#fff"/><path d="M700 223.42v24a8 8 0 0 0 8 8h184a8 8 0 0 0 8-8v-24" fill="#edf5ff"/><path d="M700 191.42v-32a8 8 0 0 1 8-8h184a8 8 0 0 1 8 8v32" fill="#cfe4ff"/><path d="M700 159.42a8 8 0 0 1 8-8h184a8 8 0 0 1 8 8v88a8 8 0 0 1-8 8H708a8 8 0 0 1-8-8zM700 191.42h200" stroke="#333" fill="none"/><use xlink:href="#q" transform="matrix(1,0,0,1,710,151.41732283464557) translate(13.649999999999991 23.6)"/><use xlink:href="#J" transform="matrix(1,0,0,1,710,151.41732283464557) translate(52.64999999999999 23.6)"/><use xlink:href="#H" transform="matrix(1,0,0,1,710,151.41732283464557) translate(126.45 23.6)"/><use xlink:href="#b" transform="matrix(1,0,0,1,705,193.91732283464557) translate(88.025 17.1)"/><use xlink:href="#I" transform="matrix(1,0,0,1,705,225.91732283464557) translate(77.05 17.1)"/><path d="M621 459.6h27a12 12 0 0 0 12-12V183.4a12 12 0 0 1 12-12h27" stroke="#333" fill="none"/><path d="M621 460.1h-.5v-1h.5zM699.5 171.92h-.5v-1h.5z" stroke="#333" stroke-width=".05" fill="#333"/><path d="M780 333.42a8 8 0 0 1 8-8h184a8 8 0 0 1 8 8v88a8 8 0 0 1-8 8H788a8 8 0 0 1-8-8z" fill="#fff"/><path d="M780 397.42v24a8 8 0 0 0 8 8h184a8 8 0 0 0 8-8v-24" fill="#edf5ff"/><path d="M780 365.42v-32a8 8 0 0 1 8-8h184a8 8 0 0 1 8 8v32" fill="#cfe4ff"/><path d="M780 333.42a8 8 0 0 1 8-8h184a8 8 0 0 1 8 8v88a8 8 0 0 1-8 8H788a8 8 0 0 1-8-8zM780 365.42h200" stroke="#333" fill="none"/><use xlink:href="#q" transform="matrix(1,0,0,1,790,325.4173228346456) translate(39.075 23.6)"/><use xlink:href="#K" transform="matrix(1,0,0,1,790,325.4173228346456) translate(78.075 23.6)"/><use xlink:href="#b" transform="matrix(1,0,0,1,785,367.9173228346456) translate(88.025 17.1)"/><use xlink:href="#I" transform="matrix(1,0,0,1,785,399.9173228346456) translate(77.05 17.1)"/><path d="M562.44 476.35v27.57a12 12 0 0 0 12 12H708a12 12 0 0 0 12-12V357.26a12 12 0 0 1 12-12h47" stroke="#333" fill="none"/><path d="M562.94 476.36h-1v-.5h1zM779.5 345.76h-.5v-1h.5z" stroke="#333" stroke-width=".05" fill="#333"/><path d="M800 608a8 8 0 0 1 8-8h224a8 8 0 0 1 8 8v44a8 8 0 0 1-8 8H808a8 8 0 0 1-8-8z" stroke="#000" stroke-opacity="0" fill="#fff" fill-opacity="0"/><path d="M900 629.83a8 8 0 0 1 8-8h44a8 8 0 0 1 8 8v13.6a8 8 0 0 1-8 8h-44a8 8 0 0 1-8-8z" stroke="#000" stroke-opacity="0" fill="#fff" fill-opacity="0"/><use xlink:href="#L" transform="matrix(1,0,0,1,905,626.8346456692911) translate(21.23456790123457 12.094444444444445)"/><path d="M900 669.83a8 8 0 0 1 8-8h44a8 8 0 0 1 8 8v13.6a8 8 0 0 1-8 8h-44a8 8 0 0 1-8-8z" stroke="#000" stroke-opacity="0" fill="#fff" fill-opacity="0"/><use xlink:href="#L" transform="matrix(1,0,0,1,905,666.8346456692911) translate(21.23456790123457 12.094444444444445)"/><path d="M1100 668a8 8 0 0 1 8-8h44a8 8 0 0 1 8 8v13.58a8 8 0 0 1-8 8h-44a8 8 0 0 1-8-8z" stroke="#000" stroke-opacity="0" fill="#fff" fill-opacity="0"/><use xlink:href="#L" transform="matrix(1,0,0,1,1105,665) translate(21.23456790123457 12.094444444444445)"/><path d="M1280 523.42a8 8 0 0 1 8-8h44a8 8 0 0 1 8 8V537a8 8 0 0 1-8 8h-44a8 8 0 0 1-8-8z" stroke="#000" stroke-opacity="0" fill="#fff" fill-opacity="0"/><use xlink:href="#L" transform="matrix(1,0,0,1,1285,520.4173228346456) translate(21.23456790123457 12.094444444444445)"/><path d="M1400 508a8 8 0 0 1 8-8h44a8 8 0 0 1 8 8v13.58a8 8 0 0 1-8 8h-44a8 8 0 0 1-8-8z" stroke="#000" stroke-opacity="0" fill="#fff" fill-opacity="0"/><use xlink:href="#L" transform="matrix(1,0,0,1,1405,505) translate(21.23456790123457 12.094444444444445)"/><path d="M1400 453.83a8 8 0 0 1 8-8h44a8 8 0 0 1 8 8v13.6a8 8 0 0 1-8 8h-44a8 8 0 0 1-8-8z" stroke="#000" stroke-opacity="0" fill="#fff" fill-opacity="0"/><use xlink:href="#L" transform="matrix(1,0,0,1,1405,450.83464566929115) translate(21.23456790123457 12.094444444444445)"/><path d="M1540 219.42a8 8 0 0 1 8-8h44a8 8 0 0 1 8 8V233a8 8 0 0 1-8 8h-44a8 8 0 0 1-8-8z" stroke="#000" stroke-opacity="0" fill="#fff" fill-opacity="0"/><use xlink:href="#L" transform="matrix(1,0,0,1,1545,216.41732283464557) translate(21.23456790123457 12.094444444444445)"/><path d="M1540 379.42a8 8 0 0 1 8-8h44a8 8 0 0 1 8 8V393a8 8 0 0 1-8 8h-44a8 8 0 0 1-8-8z" stroke="#000" stroke-opacity="0" fill="#fff" fill-opacity="0"/><use xlink:href="#L" transform="matrix(1,0,0,1,1545,376.4173228346456) translate(21.23456790123457 12.094444444444445)"/><path d="M1100 699.42a8 8 0 0 1 8-8h44a8 8 0 0 1 8 8V713a8 8 0 0 1-8 8h-44a8 8 0 0 1-8-8z" stroke="#000" stroke-opacity="0" fill="#fff" fill-opacity="0"/><use xlink:href="#L" transform="matrix(1,0,0,1,1105,696.4173228346456) translate(21.23456790123457 12.094444444444445)"/><path d="M1380 699.42a8 8 0 0 1 8-8h44a8 8 0 0 1 8 8V713a8 8 0 0 1-8 8h-44a8 8 0 0 1-8-8z" stroke="#000" stroke-opacity="0" fill="#fff" fill-opacity="0"/><use xlink:href="#L" transform="matrix(1,0,0,1,1385,696.4173228346456) translate(21.23456790123457 12.094444444444445)"/><path d="M1120 729a8 8 0 0 1 8-8h44a8 8 0 0 1 8 8v26.53a8 8 0 0 1-8 8h-44a8 8 0 0 1-8-8z" stroke="#000" stroke-opacity="0" fill="#fff" fill-opacity="0"/><use xlink:href="#M" transform="matrix(1,0,0,1,1125,726) translate(14.833333333333334 19.094444444444445)"/><path d="M1000 888a8 8 0 0 1 8-8h44a8 8 0 0 1 8 8v26.53a8 8 0 0 1-8 8h-44a8 8 0 0 1-8-8z" stroke="#000" stroke-opacity="0" fill="#fff" fill-opacity="0"/><use xlink:href="#N" transform="matrix(1,0,0,1,1005,885) translate(13.703703703703704 19.094444444444445)"/><path d="M760 588a8 8 0 0 1 8-8h44a8 8 0 0 1 8 8v26.53a8 8 0 0 1-8 8h-44a8 8 0 0 1-8-8z" stroke="#000" stroke-opacity="0" fill="#fff" fill-opacity="0"/><use xlink:href="#N" transform="matrix(1,0,0,1,765,585) translate(13.703703703703704 19.094444444444445)"/><path d="M559.07 679.5h-67.4a12 12 0 0 1-12-12V476.4" stroke="#333" fill="none"/><path d="M559.57 680h-.52v-1h.5zM480.17 476.4h-1v-.5h1z" stroke="#333" stroke-width=".05" fill="#333"/><path d="M480 762.15a8 8 0 0 1 8-8h44a8 8 0 0 1 8 8v26.53a8 8 0 0 1-8 8h-44a8 8 0 0 1-8-8z" stroke="#000" stroke-opacity="0" fill="#fff" fill-opacity="0"/><use xlink:href="#N" transform="matrix(1,0,0,1,485,759.1506561679789) translate(13.703703703703704 19.094444444444445)"/><path d="M300 648.15a8 8 0 0 1 8-8h44a8 8 0 0 1 8 8v26.53a8 8 0 0 1-8 8h-44a8 8 0 0 1-8-8z" stroke="#000" stroke-opacity="0" fill="#fff" fill-opacity="0"/><use xlink:href="#N" transform="matrix(1,0,0,1,305,645.1506561679789) translate(13.703703703703704 19.094444444444445)"/><path d="M720 948a8 8 0 0 1 8-8h44a8 8 0 0 1 8 8v26.53a8 8 0 0 1-8 8h-44a8 8 0 0 1-8-8z" stroke="#000" stroke-opacity="0" fill="#fff" fill-opacity="0"/><use xlink:href="#N" transform="matrix(1,0,0,1,725,945) translate(13.703703703703704 19.094444444444445)"/><path d="M480 948a8 8 0 0 1 8-8h44a8 8 0 0 1 8 8v26.53a8 8 0 0 1-8 8h-44a8 8 0 0 1-8-8z" stroke="#000" stroke-opacity="0" fill="#fff" fill-opacity="0"/><use xlink:href="#N" transform="matrix(1,0,0,1,485,945) translate(13.703703703703704 19.094444444444445)"/><path d="M180 888a8 8 0 0 1 8-8h44a8 8 0 0 1 8 8v26.53a8 8 0 0 1-8 8h-44a8 8 0 0 1-8-8z" stroke="#000" stroke-opacity="0" fill="#fff" fill-opacity="0"/><use xlink:href="#N" transform="matrix(1,0,0,1,185,885) translate(13.703703703703704 19.094444444444445)"/><path d="M640 148a8 8 0 0 1 8-8h44a8 8 0 0 1 8 8v26.53a8 8 0 0 1-8 8h-44a8 8 0 0 1-8-8z" stroke="#000" stroke-opacity="0" fill="#fff" fill-opacity="0"/><use xlink:href="#N" transform="matrix(1,0,0,1,645,145) translate(13.703703703703704 19.094444444444445)"/><path d="M720 368a8 8 0 0 1 8-8h44a8 8 0 0 1 8 8v26.53a8 8 0 0 1-8 8h-44a8 8 0 0 1-8-8z" stroke="#000" stroke-opacity="0" fill="#fff" fill-opacity="0"/><use xlink:href="#N" transform="matrix(1,0,0,1,725,365) translate(13.703703703703704 19.094444444444445)"/><path d="M320 394.88a8 8 0 0 1 8-8h44a8 8 0 0 1 8 8v26.54a8 8 0 0 1-8 8h-44a8 8 0 0 1-8-8z" stroke="#000" stroke-opacity="0" fill="#fff" fill-opacity="0"/><use xlink:href="#N" transform="matrix(1,0,0,1,325,391.88398950131227) translate(13.703703703703704 19.094444444444445)"/><path d="M520 661.1a8 8 0 0 1 8-8h44a8 8 0 0 1 8 8v13.58a8 8 0 0 1-8 8h-44a8 8 0 0 1-8-8z" stroke="#000" stroke-opacity="0" fill="#fff" fill-opacity="0"/><use xlink:href="#L" transform="matrix(1,0,0,1,525,658.1013123359578) translate(21.23456790123457 12.094444444444445)"/><path d="M520 705.83a8 8 0 0 1 8-8h44a8 8 0 0 1 8 8v13.6a8 8 0 0 1-8 8h-44a8 8 0 0 1-8-8z" stroke="#000" stroke-opacity="0" fill="#fff" fill-opacity="0"/><use xlink:href="#L" transform="matrix(1,0,0,1,525,702.8346456692911) translate(21.23456790123457 12.094444444444445)"/><path d="M540 483.42a8 8 0 0 1 8-8h44a8 8 0 0 1 8 8V497a8 8 0 0 1-8 8h-44a8 8 0 0 1-8-8z" stroke="#000" stroke-opacity="0" fill="#fff" fill-opacity="0"/><use xlink:href="#L" transform="matrix(1,0,0,1,545,480.4173228346456) translate(21.23456790123457 12.094444444444445)"/><path d="M380 437.42a8 8 0 0 1 8-8h44a8 8 0 0 1 8 8V451a8 8 0 0 1-8 8h-44a8 8 0 0 1-8-8z" stroke="#000" stroke-opacity="0" fill="#fff" fill-opacity="0"/><use xlink:href="#L" transform="matrix(1,0,0,1,385,434.4173228346456) translate(21.23456790123457 12.094444444444445)"/><path d="M600 467a8 8 0 0 1 8-8h44a8 8 0 0 1 8 8v13.58a8 8 0 0 1-8 8h-44a8 8 0 0 1-8-8z" stroke="#000" stroke-opacity="0" fill="#fff" fill-opacity="0"/><use xlink:href="#L" transform="matrix(1,0,0,1,605,464) translate(21.23456790123457 12.094444444444445)"/><path d="M480 476.94a8 8 0 0 1 8-8h44a8 8 0 0 1 8 8v26.54a8 8 0 0 1-8 8h-44a8 8 0 0 1-8-8z" stroke="#000" stroke-opacity="0" fill="#fff" fill-opacity="0"/><use xlink:href="#N" transform="matrix(1,0,0,1,485,473.94199475065614) translate(13.703703703703704 19.094444444444445)"/><path d="M540 899.42a8 8 0 0 1 8-8h44a8 8 0 0 1 8 8V913a8 8 0 0 1-8 8h-44a8 8 0 0 1-8-8z" stroke="#000" stroke-opacity="0" fill="#fff" fill-opacity="0"/><use xlink:href="#L" transform="matrix(1,0,0,1,545,896.4173228346456) translate(21.23456790123457 12.094444444444445)"/><path d="M340 848a8 8 0 0 1 8-8h44a8 8 0 0 1 8 8v13.58a8 8 0 0 1-8 8h-44a8 8 0 0 1-8-8z" stroke="#000" stroke-opacity="0" fill="#fff" fill-opacity="0"/><use xlink:href="#L" transform="matrix(1,0,0,1,345,845) translate(21.23456790123457 12.094444444444445)"/><path d="M340 894.48a8 8 0 0 1 8-8h44a8 8 0 0 1 8 8v13.58a8 8 0 0 1-8 8h-44a8 8 0 0 1-8-8z" stroke="#000" stroke-opacity="0" fill="#fff" fill-opacity="0"/><use xlink:href="#L" transform="matrix(1,0,0,1,345,891.4753280839894) translate(21.23456790123457 12.094444444444445)"/><path d="M460 899.42a8 8 0 0 1 8-8h44a8 8 0 0 1 8 8V913a8 8 0 0 1-8 8h-44a8 8 0 0 1-8-8z" stroke="#000" stroke-opacity="0" fill="#fff" fill-opacity="0"/><use xlink:href="#L" transform="matrix(1,0,0,1,465,896.4173228346456) translate(21.23456790123457 12.094444444444445)"/><path d="M860 1048a8 8 0 0 1 8-8h184a8 8 0 0 1 8 8v152a8 8 0 0 1-8 8H868a8 8 0 0 1-8-8z" fill="#fff"/><path d="M860 1112v33h200v-33M860 1176v24a8 8 0 0 0 8 8h184a8 8 0 0 0 8-8v-24" fill="#fff3d9"/><path d="M860 1080v-32a8 8 0 0 1 8-8h184a8 8 0 0 1 8 8v32" fill="#ffdda6"/><path d="M860 1048a8 8 0 0 1 8-8h184a8 8 0 0 1 8 8v152a8 8 0 0 1-8 8H868a8 8 0 0 1-8-8zM860 1080h200" stroke="#333" fill="none"/><use xlink:href="#q" transform="matrix(1,0,0,1,870,1040) translate(33.55 23.6)"/><use xlink:href="#B" transform="matrix(1,0,0,1,870,1040) translate(72.55 23.6)"/><use xlink:href="#b" transform="matrix(1,0,0,1,865,1082.5) translate(88.025 17.1)"/><use xlink:href="#m" transform="matrix(1,0,0,1,865,1114.5) translate(80.5 17.1)"/><use xlink:href="#p" transform="matrix(1,0,0,1,865,1146.5) translate(58.025 17.1)"/><use xlink:href="#z" transform="matrix(1,0,0,1,865,1178.5) translate(61.05 17.1)"/><path d="M960 1008a8 8 0 0 1 8-8h44a8 8 0 0 1 8 8v26.53a8 8 0 0 1-8 8h-44a8 8 0 0 1-8-8z" stroke="#000" stroke-opacity="0" fill="#fff" fill-opacity="0"/><use xlink:href="#N" transform="matrix(1,0,0,1,965,1005) translate(13.703703703703704 19.094444444444445)"/><path d="M581 875.6h177.25a12 12 0 0 1 12 12V928a12 12 0 0 0 12 12H948a12 12 0 0 1 12 12v87.05" stroke="#333" fill="none"/><path d="M581 875.1v1h-.5v-1zM960.5 1039.55h-1v-.5h1z" stroke="#333" stroke-width=".05" fill="#333"/><path d="M580 858.42a8 8 0 0 1 8-8h44a8 8 0 0 1 8 8V872a8 8 0 0 1-8 8h-44a8 8 0 0 1-8-8z" stroke="#000" stroke-opacity="0" fill="#fff" fill-opacity="0"/><use xlink:href="#L" transform="matrix(1,0,0,1,585,855.4173228346456) translate(21.23456790123457 12.094444444444445)"/><path d="M1138.26 1106.05a8 8 0 0 1 8-8h184a8 8 0 0 1 8 8v152a8 8 0 0 1-8 8h-184a8 8 0 0 1-8-8z" fill="#fff"/><path d="M1138.26 1170.05v33h200v-33M1138.26 1234.05v24a8 8 0 0 0 8 8h184a8 8 0 0 0 8-8v-24" fill="#fff3d9"/><path d="M1138.26 1138.05v-32a8 8 0 0 1 8-8h184a8 8 0 0 1 8 8v32" fill="#ffdda6"/><path d="M1138.26 1106.05a8 8 0 0 1 8-8h184a8 8 0 0 1 8 8v152a8 8 0 0 1-8 8h-184a8 8 0 0 1-8-8zM1138.26 1138.05h200" stroke="#333" fill="none"/><use xlink:href="#q" transform="matrix(1,0,0,1,1148.2615696987468,1098.049954991281) translate(39.05 23.6)"/><use xlink:href="#O" transform="matrix(1,0,0,1,1148.2615696987468,1098.049954991281) translate(78.05 23.6)"/><g><use xlink:href="#b" transform="matrix(1,0,0,1,1143.2615696987468,1140.549954991281) translate(88.025 17.1)"/></g><g><use xlink:href="#m" transform="matrix(1,0,0,1,1143.2615696987468,1172.549954991281) translate(80.5 17.1)"/></g><g><use xlink:href="#p" transform="matrix(1,0,0,1,1143.2615696987468,1204.549954991281) translate(58.025 17.1)"/></g><g><use xlink:href="#z" transform="matrix(1,0,0,1,1143.2615696987468,1236.549954991281) translate(61.05 17.1)"/></g><path d="M580.96 843.44h8.5a12 12 0 0 1 12 12V918a12 12 0 0 0 12 12h424.3a12 12 0 0 1 12 12v76a12 12 0 0 0 12 12h164.5a12 12 0 0 1 12 12v55.1" stroke="#333" fill="none"/><path d="M580.97 843.94h-.5v-1h.5zM1238.76 1097.6h-1v-.5h1z" stroke="#333" stroke-width=".05" fill="#333"/><path d="M560 821.83a8 8 0 0 1 8-8h44a8 8 0 0 1 8 8v13.6a8 8 0 0 1-8 8h-44a8 8 0 0 1-8-8z" stroke="#000" stroke-opacity="0" fill="#fff" fill-opacity="0"/><g><use xlink:href="#L" transform="matrix(1,0,0,1,565,818.8346456692911) translate(21.23456790123457 12.094444444444445)"/></g><path d="M1240 1063.52a8 8 0 0 1 8-8h44a8 8 0 0 1 8 8v26.53a8 8 0 0 1-8 8h-44a8 8 0 0 1-8-8z" stroke="#000" stroke-opacity="0" fill="#fff" fill-opacity="0"/><g><use xlink:href="#N" transform="matrix(1,0,0,1,1245,1060.5166216579478) translate(13.703703703703704 19.094444444444445)"/></g><path d="M1579.5 539.42a8 8 0 0 1 8-8h184a8 8 0 0 1 8 8v88a8 8 0 0 1-8 8h-184a8 8 0 0 1-8-8z" fill="#fff"/><path d="M1579.5 603.42v24a8 8 0 0 0 8 8h184a8 8 0 0 0 8-8v-24" fill="#e3fae3"/><path d="M1579.5 571.42v-32a8 8 0 0 1 8-8h184a8 8 0 0 1 8 8v32" fill="#c3f7c8"/><path d="M1579.5 539.42a8 8 0 0 1 8-8h184a8 8 0 0 1 8 8v88a8 8 0 0 1-8 8h-184a8 8 0 0 1-8-8zM1579.5 571.42h200" stroke="#333" fill="none"/><g><use xlink:href="#l" transform="matrix(1,0,0,1,1589.5,531.4173228346456) translate(65.5 23.6)"/></g><g><use xlink:href="#P" transform="matrix(1,0,0,1,1584.5,573.9173228346456) translate(77.525 17.1)"/></g><g><use xlink:href="#Q" transform="matrix(1,0,0,1,1584.5,605.9173228346456) translate(80 17.1)"/></g><path d="M1780.5 459.6h27.5a12 12 0 0 1 12 12v67.68a12 12 0 0 1-12 12h-27.58" stroke="#333" fill="none"/><path d="M1780.5 460.1h-.5v-1h.5zM1780.43 551.78h-.5v-1h.5z" stroke="#333" stroke-width=".05" fill="#333"/><path d="M1760 437.42a8 8 0 0 1 8-8h44a8 8 0 0 1 8 8V451a8 8 0 0 1-8 8h-44a8 8 0 0 1-8-8z" stroke="#000" stroke-opacity="0" fill="#fff" fill-opacity="0"/><g><use xlink:href="#L" transform="matrix(1,0,0,1,1765,434.4173228346456) translate(21.23456790123457 12.094444444444445)"/></g><path d="M1760 558.42a8 8 0 0 1 8-8h44a8 8 0 0 1 8 8V572a8 8 0 0 1-8 8h-44a8 8 0 0 1-8-8z" stroke="#000" stroke-opacity="0" fill="#fff" fill-opacity="0"/><g><use xlink:href="#L" transform="matrix(1,0,0,1,1765,555.4173228346456) translate(21.23456790123457 12.094444444444445)"/></g><defs><path fill="#333" d="M141-36C126-15 110 5 73 4 37 3 15-17 15-53c-1-64 63-63 125-63 3-35-9-54-41-54-24 1-41 7-42 31l-33-3c5-37 33-52 76-52 45 0 72 20 72 64v82c-1 20 7 32 28 27v20c-31 9-61-2-59-35zM48-53c0 20 12 33 32 33 41-3 63-29 60-74-43 2-92-5-92 41" id="R"/><path fill="#333" d="M117-194c89-4 53 116 60 194h-32v-121c0-31-8-49-39-48C34-167 62-67 57 0H25l-1-190h30c1 10-1 24 2 32 11-22 29-35 61-36" id="S"/><path fill="#333" d="M100-194c62-1 85 37 85 99 1 63-27 99-86 99S16-35 15-95c0-66 28-99 85-99zM99-20c44 1 53-31 53-75 0-43-8-75-51-75s-53 32-53 75 10 74 51 75" id="T"/><path fill="#333" d="M59-47c-2 24 18 29 38 22v24C64 9 27 4 27-40v-127H5v-23h24l9-43h21v43h35v23H59v120" id="U"/><path fill="#333" d="M24-231v-30h32v30H24zM24 0v-190h32V0H24" id="V"/><g id="a"><use transform="matrix(0.05,0,0,0.05,0,0)" xlink:href="#R"/><use transform="matrix(0.05,0,0,0.05,10,0)" xlink:href="#S"/><use transform="matrix(0.05,0,0,0.05,20,0)" xlink:href="#S"/><use transform="matrix(0.05,0,0,0.05,30,0)" xlink:href="#T"/><use transform="matrix(0.05,0,0,0.05,40,0)" xlink:href="#U"/><use transform="matrix(0.05,0,0,0.05,45,0)" xlink:href="#R"/><use transform="matrix(0.05,0,0,0.05,55,0)" xlink:href="#U"/><use transform="matrix(0.05,0,0,0.05,60,0)" xlink:href="#V"/><use transform="matrix(0.05,0,0,0.05,63.95,0)" xlink:href="#T"/><use transform="matrix(0.05,0,0,0.05,73.95,0)" xlink:href="#S"/></g><path fill="#333" d="M85-194c31 0 48 13 60 33l-1-100h32l1 261h-30c-2-10 0-23-3-31C134-8 116 4 85 4 32 4 16-35 15-94c0-66 23-100 70-100zm9 24c-40 0-46 34-46 75 0 40 6 74 45 74 42 0 51-32 51-76 0-42-9-74-50-73" id="W"/><g id="b"><use transform="matrix(0.05,0,0,0.05,0,0)" xlink:href="#V"/><use transform="matrix(0.05,0,0,0.05,3.95,0)" xlink:href="#W"/></g><path fill="#333" d="M115-194c53 0 69 39 70 98 0 66-23 100-70 100C84 3 66-7 56-30L54 0H23l1-261h32v101c10-23 28-34 59-34zm-8 174c40 0 45-34 45-75 0-40-5-75-45-74-42 0-51 32-51 76 0 43 10 73 51 73" id="X"/><path fill="#333" d="M143 0L79-87 56-68V0H24v-261h32v163l83-92h37l-77 82L181 0h-38" id="Y"/><g id="c"><use transform="matrix(0.05,0,0,0.05,0,0)" xlink:href="#X"/><use transform="matrix(0.05,0,0,0.05,10,0)" xlink:href="#T"/><use transform="matrix(0.05,0,0,0.05,20,0)" xlink:href="#T"/><use transform="matrix(0.05,0,0,0.05,30,0)" xlink:href="#Y"/></g><g id="d"><use transform="matrix(0.05,0,0,0.05,0,0)" xlink:href="#V"/><use transform="matrix(0.05,0,0,0.05,3.95,0)" xlink:href="#W"/></g><path fill="#333" d="M179-190L93 31C79 59 56 82 12 73V49c39 6 53-20 64-50L1-190h34L92-34l54-156h33" id="Z"/><path fill="#333" d="M115-194c55 1 70 41 70 98S169 2 115 4C84 4 66-9 55-30l1 105H24l-1-265h31l2 30c10-21 28-34 59-34zm-8 174c40 0 45-34 45-75s-6-73-45-74c-42 0-51 32-51 76 0 43 10 73 51 73" id="aa"/><path fill="#333" d="M100-194c63 0 86 42 84 106H49c0 40 14 67 53 68 26 1 43-12 49-29l28 8c-11 28-37 45-77 45C44 4 14-33 15-96c1-61 26-98 85-98zm52 81c6-60-76-77-97-28-3 7-6 17-6 28h103" id="ab"/><g id="e"><use transform="matrix(0.05,0,0,0.05,0,0)" xlink:href="#U"/><use transform="matrix(0.05,0,0,0.05,5,0)" xlink:href="#Z"/><use transform="matrix(0.05,0,0,0.05,14,0)" xlink:href="#aa"/><use transform="matrix(0.05,0,0,0.05,24,0)" xlink:href="#ab"/></g><path fill="#333" d="M24 0v-261h32V0H24" id="ac"/><path fill="#333" d="M96-169c-40 0-48 33-48 73s9 75 48 75c24 0 41-14 43-38l32 2c-6 37-31 61-74 61-59 0-76-41-82-99-10-93 101-131 147-64 4 7 5 14 7 22l-32 3c-4-21-16-35-41-35" id="ad"/><g id="f"><use transform="matrix(0.05,0,0,0.05,0,0)" xlink:href="#ac"/><use transform="matrix(0.05,0,0,0.05,3.95,0)" xlink:href="#T"/><use transform="matrix(0.05,0,0,0.05,13.949999999999998,0)" xlink:href="#ad"/><use transform="matrix(0.05,0,0,0.05,22.95,0)" xlink:href="#R"/><use transform="matrix(0.05,0,0,0.05,32.95,0)" xlink:href="#U"/><use transform="matrix(0.05,0,0,0.05,37.95,0)" xlink:href="#V"/><use transform="matrix(0.05,0,0,0.05,41.900000000000006,0)" xlink:href="#T"/><use transform="matrix(0.05,0,0,0.05,51.900000000000006,0)" xlink:href="#S"/></g><path fill="#333" d="M114-163C36-179 61-72 57 0H25l-1-190h30c1 12-1 29 2 39 6-27 23-49 58-41v29" id="ae"/><path fill="#333" d="M101-234c-31-9-42 10-38 44h38v23H63V0H32v-167H5v-23h27c-7-52 17-82 69-68v24" id="af"/><g id="g"><use transform="matrix(0.05,0,0,0.05,0,0)" xlink:href="#ae"/><use transform="matrix(0.05,0,0,0.05,5.95,0)" xlink:href="#ab"/><use transform="matrix(0.05,0,0,0.05,15.949999999999998,0)" xlink:href="#af"/><use transform="matrix(0.05,0,0,0.05,20.95,0)" xlink:href="#ab"/><use transform="matrix(0.05,0,0,0.05,30.950000000000003,0)" xlink:href="#ae"/><use transform="matrix(0.05,0,0,0.05,36.9,0)" xlink:href="#ab"/><use transform="matrix(0.05,0,0,0.05,46.9,0)" xlink:href="#S"/><use transform="matrix(0.05,0,0,0.05,56.900000000000006,0)" xlink:href="#ad"/><use transform="matrix(0.05,0,0,0.05,65.9,0)" xlink:href="#ab"/></g><path fill="#333" d="M141 0L90-78 38 0H4l68-98-65-92h35l48 74 47-74h35l-64 92 68 98h-35" id="ag"/><g id="h"><use transform="matrix(0.05,0,0,0.05,0,0)" xlink:href="#U"/><use transform="matrix(0.05,0,0,0.05,5,0)" xlink:href="#ab"/><use transform="matrix(0.05,0,0,0.05,15,0)" xlink:href="#ag"/><use transform="matrix(0.05,0,0,0.05,24,0)" xlink:href="#U"/></g><path fill="#333" d="M135-143c-3-34-86-38-87 0 15 53 115 12 119 90S17 21 10-45l28-5c4 36 97 45 98 0-10-56-113-15-118-90-4-57 82-63 122-42 12 7 21 19 24 35" id="ah"/><path fill="#333" d="M106-169C34-169 62-67 57 0H25v-261h32l-1 103c12-21 28-36 61-36 89 0 53 116 60 194h-32v-121c2-32-8-49-39-48" id="ai"/><g id="i"><use transform="matrix(0.05,0,0,0.05,0,0)" xlink:href="#ae"/><use transform="matrix(0.05,0,0,0.05,5.95,0)" xlink:href="#ab"/><use transform="matrix(0.05,0,0,0.05,15.949999999999998,0)" xlink:href="#ac"/><use transform="matrix(0.05,0,0,0.05,19.9,0)" xlink:href="#R"/><use transform="matrix(0.05,0,0,0.05,29.899999999999995,0)" xlink:href="#U"/><use transform="matrix(0.05,0,0,0.05,34.9,0)" xlink:href="#V"/><use transform="matrix(0.05,0,0,0.05,38.85,0)" xlink:href="#T"/><use transform="matrix(0.05,0,0,0.05,48.85,0)" xlink:href="#S"/><use transform="matrix(0.05,0,0,0.05,58.85,0)" xlink:href="#ah"/><use transform="matrix(0.05,0,0,0.05,67.85,0)" xlink:href="#ai"/><use transform="matrix(0.05,0,0,0.05,77.85,0)" xlink:href="#V"/><use transform="matrix(0.05,0,0,0.05,81.8,0)" xlink:href="#aa"/><use transform="matrix(0.05,0,0,0.05,91.8,0)" xlink:href="#ah"/></g><path fill="#333" d="M177-190C167-65 218 103 67 71c-23-6-38-20-44-43l32-5c15 47 100 32 89-28v-30C133-14 115 1 83 1 29 1 15-40 15-95c0-56 16-97 71-98 29-1 48 16 59 35 1-10 0-23 2-32h30zM94-22c36 0 50-32 50-73 0-42-14-75-50-75-39 0-46 34-46 75s6 73 46 73" id="aj"/><g id="j"><use transform="matrix(0.05,0,0,0.05,0,0)" xlink:href="#aa"/><use transform="matrix(0.05,0,0,0.05,10,0)" xlink:href="#R"/><use transform="matrix(0.05,0,0,0.05,20,0)" xlink:href="#aj"/><use transform="matrix(0.05,0,0,0.05,30,0)" xlink:href="#ab"/></g><g id="k"><use transform="matrix(0.05,0,0,0.05,0,0)" xlink:href="#ad"/><use transform="matrix(0.05,0,0,0.05,9,0)" xlink:href="#T"/><use transform="matrix(0.05,0,0,0.05,19,0)" xlink:href="#T"/><use transform="matrix(0.05,0,0,0.05,29,0)" xlink:href="#ae"/><use transform="matrix(0.05,0,0,0.05,34.95,0)" xlink:href="#W"/><use transform="matrix(0.05,0,0,0.05,44.95,0)" xlink:href="#V"/><use transform="matrix(0.05,0,0,0.05,48.900000000000006,0)" xlink:href="#S"/><use transform="matrix(0.05,0,0,0.05,58.900000000000006,0)" xlink:href="#R"/><use transform="matrix(0.05,0,0,0.05,68.9,0)" xlink:href="#U"/><use transform="matrix(0.05,0,0,0.05,73.9,0)" xlink:href="#ab"/></g><g id="l"><use transform="matrix(0.05,0,0,0.05,0,0)" xlink:href="#aa"/><use transform="matrix(0.05,0,0,0.05,10,0)" xlink:href="#R"/><use transform="matrix(0.05,0,0,0.05,20,0)" xlink:href="#aj"/><use transform="matrix(0.05,0,0,0.05,30,0)" xlink:href="#ab"/><use transform="matrix(0.05,0,0,0.05,40,0)" xlink:href="#ah"/></g><g id="m"><use transform="matrix(0.05,0,0,0.05,0,0)" xlink:href="#U"/><use transform="matrix(0.05,0,0,0.05,5,0)" xlink:href="#ab"/><use transform="matrix(0.05,0,0,0.05,15,0)" xlink:href="#ag"/><use transform="matrix(0.05,0,0,0.05,24,0)" xlink:href="#U"/></g><g id="n"><use transform="matrix(0.05,0,0,0.05,0,0)" xlink:href="#R"/><use transform="matrix(0.05,0,0,0.05,10,0)" xlink:href="#S"/><use transform="matrix(0.05,0,0,0.05,20,0)" xlink:href="#S"/><use transform="matrix(0.05,0,0,0.05,30,0)" xlink:href="#T"/><use transform="matrix(0.05,0,0,0.05,40,0)" xlink:href="#U"/><use transform="matrix(0.05,0,0,0.05,45,0)" xlink:href="#R"/><use transform="matrix(0.05,0,0,0.05,55,0)" xlink:href="#U"/><use transform="matrix(0.05,0,0,0.05,60,0)" xlink:href="#V"/><use transform="matrix(0.05,0,0,0.05,63.95,0)" xlink:href="#T"/><use transform="matrix(0.05,0,0,0.05,73.95,0)" xlink:href="#S"/></g><g id="o"><use transform="matrix(0.05,0,0,0.05,0,0)" xlink:href="#V"/><use transform="matrix(0.05,0,0,0.05,3.95,0)" xlink:href="#W"/><use transform="matrix(0.05,0,0,0.05,13.949999999999998,0)" xlink:href="#ah"/></g><path fill="#333" d="M84 4C-5 8 30-112 23-190h32v120c0 31 7 50 39 49 72-2 45-101 50-169h31l1 190h-30c-1-10 1-25-2-33-11 22-28 36-60 37" id="ak"/><g id="p"><use transform="matrix(0.05,0,0,0.05,0,0)" xlink:href="#ac"/><use transform="matrix(0.05,0,0,0.05,3.95,0)" xlink:href="#R"/><use transform="matrix(0.05,0,0,0.05,13.949999999999998,0)" xlink:href="#S"/><use transform="matrix(0.05,0,0,0.05,23.95,0)" xlink:href="#aj"/><use transform="matrix(0.05,0,0,0.05,33.95,0)" xlink:href="#ak"/><use transform="matrix(0.05,0,0,0.05,43.95,0)" xlink:href="#R"/><use transform="matrix(0.05,0,0,0.05,53.95,0)" xlink:href="#aj"/><use transform="matrix(0.05,0,0,0.05,63.95,0)" xlink:href="#ab"/></g><g id="q"><use transform="matrix(0.05,0,0,0.05,0,0)" xlink:href="#U"/><use transform="matrix(0.05,0,0,0.05,5,0)" xlink:href="#Z"/><use transform="matrix(0.05,0,0,0.05,14,0)" xlink:href="#aa"/><use transform="matrix(0.05,0,0,0.05,24,0)" xlink:href="#ab"/></g><path fill="#333" d="M16-82v-28h88v28H16" id="al"/><g id="r"><use transform="matrix(0.05,0,0,0.05,0,0)" xlink:href="#S"/><use transform="matrix(0.05,0,0,0.05,10,0)" xlink:href="#T"/><use transform="matrix(0.05,0,0,0.05,20,0)" xlink:href="#S"/><use transform="matrix(0.05,0,0,0.05,30,0)" xlink:href="#ab"/><use transform="matrix(0.05,0,0,0.05,40,0)" xlink:href="#al"/><use transform="matrix(0.05,0,0,0.05,45.95,0)" xlink:href="#aa"/><use transform="matrix(0.05,0,0,0.05,55.95,0)" xlink:href="#ab"/><use transform="matrix(0.05,0,0,0.05,65.95,0)" xlink:href="#S"/><use transform="matrix(0.05,0,0,0.05,75.95,0)" xlink:href="#ad"/><use transform="matrix(0.05,0,0,0.05,84.95,0)" xlink:href="#V"/><use transform="matrix(0.05,0,0,0.05,88.9,0)" xlink:href="#ac"/></g><g id="s"><use transform="matrix(0.05,0,0,0.05,0,0)" xlink:href="#U"/><use transform="matrix(0.05,0,0,0.05,5,0)" xlink:href="#ae"/><use transform="matrix(0.05,0,0,0.05,10.95,0)" xlink:href="#R"/><use transform="matrix(0.05,0,0,0.05,20.95,0)" xlink:href="#ad"/><use transform="matrix(0.05,0,0,0.05,29.950000000000003,0)" xlink:href="#ab"/></g><g id="t"><use transform="matrix(0.05,0,0,0.05,0,0)" xlink:href="#aa"/><use transform="matrix(0.05,0,0,0.05,10,0)" xlink:href="#ab"/><use transform="matrix(0.05,0,0,0.05,20,0)" xlink:href="#S"/><use transform="matrix(0.05,0,0,0.05,30,0)" xlink:href="#ad"/><use transform="matrix(0.05,0,0,0.05,39,0)" xlink:href="#V"/><use transform="matrix(0.05,0,0,0.05,42.95,0)" xlink:href="#ac"/></g><g id="u"><use transform="matrix(0.05,0,0,0.05,0,0)" xlink:href="#U"/><use transform="matrix(0.05,0,0,0.05,5,0)" xlink:href="#Z"/><use transform="matrix(0.05,0,0,0.05,14,0)" xlink:href="#aa"/><use transform="matrix(0.05,0,0,0.05,24,0)" xlink:href="#ab"/></g><g id="v"><use transform="matrix(0.05,0,0,0.05,0,0)" xlink:href="#ak"/><use transform="matrix(0.05,0,0,0.05,10,0)" xlink:href="#U"/><use transform="matrix(0.05,0,0,0.05,15,0)" xlink:href="#ab"/><use transform="matrix(0.05,0,0,0.05,25,0)" xlink:href="#S"/><use transform="matrix(0.05,0,0,0.05,35,0)" xlink:href="#ah"/><use transform="matrix(0.05,0,0,0.05,44,0)" xlink:href="#V"/><use transform="matrix(0.05,0,0,0.05,47.95,0)" xlink:href="#ac"/></g><path fill="#333" d="M206 0h-36l-40-164L89 0H53L-1-190h32L70-26l43-164h34l41 164 42-164h31" id="am"/><g id="w"><use transform="matrix(0.05,0,0,0.05,0,0)" xlink:href="#am"/><use transform="matrix(0.05,0,0,0.05,12.950000000000001,0)" xlink:href="#ae"/><use transform="matrix(0.05,0,0,0.05,18.900000000000002,0)" xlink:href="#V"/><use transform="matrix(0.05,0,0,0.05,22.85,0)" xlink:href="#U"/><use transform="matrix(0.05,0,0,0.05,27.85,0)" xlink:href="#U"/><use transform="matrix(0.05,0,0,0.05,32.85,0)" xlink:href="#ab"/><use transform="matrix(0.05,0,0,0.05,42.85,0)" xlink:href="#S"/></g><g id="x"><use transform="matrix(0.05,0,0,0.05,0,0)" xlink:href="#ae"/><use transform="matrix(0.05,0,0,0.05,5.95,0)" xlink:href="#ab"/><use transform="matrix(0.05,0,0,0.05,15.949999999999998,0)" xlink:href="#af"/><use transform="matrix(0.05,0,0,0.05,20.95,0)" xlink:href="#ab"/><use transform="matrix(0.05,0,0,0.05,30.950000000000003,0)" xlink:href="#ae"/><use transform="matrix(0.05,0,0,0.05,36.9,0)" xlink:href="#ab"/><use transform="matrix(0.05,0,0,0.05,46.9,0)" xlink:href="#S"/><use transform="matrix(0.05,0,0,0.05,56.900000000000006,0)" xlink:href="#ad"/><use transform="matrix(0.05,0,0,0.05,65.9,0)" xlink:href="#ab"/></g><g id="y"><use transform="matrix(0.05,0,0,0.05,0,0)" xlink:href="#U"/><use transform="matrix(0.05,0,0,0.05,5,0)" xlink:href="#R"/><use transform="matrix(0.05,0,0,0.05,15,0)" xlink:href="#ae"/><use transform="matrix(0.05,0,0,0.05,20.95,0)" xlink:href="#aj"/><use transform="matrix(0.05,0,0,0.05,30.950000000000003,0)" xlink:href="#ab"/><use transform="matrix(0.05,0,0,0.05,40.95,0)" xlink:href="#U"/></g><g id="z"><use transform="matrix(0.05,0,0,0.05,0,0)" xlink:href="#ad"/><use transform="matrix(0.05,0,0,0.05,9,0)" xlink:href="#ab"/><use transform="matrix(0.05,0,0,0.05,19,0)" xlink:href="#ae"/><use transform="matrix(0.05,0,0,0.05,24.95,0)" xlink:href="#U"/><use transform="matrix(0.05,0,0,0.05,29.950000000000003,0)" xlink:href="#R"/><use transform="matrix(0.05,0,0,0.05,39.95,0)" xlink:href="#V"/><use transform="matrix(0.05,0,0,0.05,43.900000000000006,0)" xlink:href="#S"/><use transform="matrix(0.05,0,0,0.05,53.900000000000006,0)" xlink:href="#U"/><use transform="matrix(0.05,0,0,0.05,58.900000000000006,0)" xlink:href="#Z"/></g><path fill="#333" d="M24-231v-30h32v30H24zM-9 49c24 4 33-6 33-30v-209h32V24c2 40-23 58-65 49V49" id="an"/><g id="A"><use transform="matrix(0.05,0,0,0.05,0,0)" xlink:href="#an"/><use transform="matrix(0.05,0,0,0.05,3.95,0)" xlink:href="#ak"/><use transform="matrix(0.05,0,0,0.05,13.949999999999998,0)" xlink:href="#W"/><use transform="matrix(0.05,0,0,0.05,23.95,0)" xlink:href="#aj"/><use transform="matrix(0.05,0,0,0.05,33.95,0)" xlink:href="#V"/><use transform="matrix(0.05,0,0,0.05,37.900000000000006,0)" xlink:href="#S"/><use transform="matrix(0.05,0,0,0.05,47.900000000000006,0)" xlink:href="#aj"/></g><path fill="#333" d="M210-169c-67 3-38 105-44 169h-31v-121c0-29-5-50-35-48C34-165 62-65 56 0H25l-1-190h30c1 10-1 24 2 32 10-44 99-50 107 0 11-21 27-35 58-36 85-2 47 119 55 194h-31v-121c0-29-5-49-35-48" id="ao"/><g id="B"><use transform="matrix(0.05,0,0,0.05,0,0)" xlink:href="#ad"/><use transform="matrix(0.05,0,0,0.05,9,0)" xlink:href="#T"/><use transform="matrix(0.05,0,0,0.05,19,0)" xlink:href="#ao"/><use transform="matrix(0.05,0,0,0.05,33.95,0)" xlink:href="#ao"/><use transform="matrix(0.05,0,0,0.05,48.900000000000006,0)" xlink:href="#ab"/><use transform="matrix(0.05,0,0,0.05,58.900000000000006,0)" xlink:href="#S"/><use transform="matrix(0.05,0,0,0.05,68.9,0)" xlink:href="#U"/></g><g id="C"><use transform="matrix(0.05,0,0,0.05,0,0)" xlink:href="#ah"/><use transform="matrix(0.05,0,0,0.05,9,0)" xlink:href="#ab"/><use transform="matrix(0.05,0,0,0.05,19,0)" xlink:href="#S"/><use transform="matrix(0.05,0,0,0.05,29,0)" xlink:href="#U"/><use transform="matrix(0.05,0,0,0.05,34,0)" xlink:href="#V"/><use transform="matrix(0.05,0,0,0.05,37.95,0)" xlink:href="#ao"/><use transform="matrix(0.05,0,0,0.05,52.900000000000006,0)" xlink:href="#ab"/><use transform="matrix(0.05,0,0,0.05,62.900000000000006,0)" xlink:href="#S"/><use transform="matrix(0.05,0,0,0.05,72.9,0)" xlink:href="#U"/></g><g id="D"><use transform="matrix(0.05,0,0,0.05,0,0)" xlink:href="#ae"/><use transform="matrix(0.05,0,0,0.05,5.95,0)" xlink:href="#ab"/><use transform="matrix(0.05,0,0,0.05,15.949999999999998,0)" xlink:href="#aa"/><use transform="matrix(0.05,0,0,0.05,25.950000000000003,0)" xlink:href="#ac"/><use transform="matrix(0.05,0,0,0.05,29.899999999999995,0)" xlink:href="#R"/><use transform="matrix(0.05,0,0,0.05,39.9,0)" xlink:href="#ad"/><use transform="matrix(0.05,0,0,0.05,48.9,0)" xlink:href="#ab"/><use transform="matrix(0.05,0,0,0.05,58.900000000000006,0)" xlink:href="#ao"/><use transform="matrix(0.05,0,0,0.05,73.85,0)" xlink:href="#ab"/><use transform="matrix(0.05,0,0,0.05,83.85,0)" xlink:href="#S"/><use transform="matrix(0.05,0,0,0.05,93.85,0)" xlink:href="#U"/></g><g id="E"><use transform="matrix(0.05,0,0,0.05,0,0)" xlink:href="#U"/><use transform="matrix(0.05,0,0,0.05,5,0)" xlink:href="#ae"/><use transform="matrix(0.05,0,0,0.05,10.95,0)" xlink:href="#R"/><use transform="matrix(0.05,0,0,0.05,20.95,0)" xlink:href="#S"/><use transform="matrix(0.05,0,0,0.05,30.950000000000003,0)" xlink:href="#ah"/><use transform="matrix(0.05,0,0,0.05,39.95,0)" xlink:href="#ac"/><use transform="matrix(0.05,0,0,0.05,43.900000000000006,0)" xlink:href="#R"/><use transform="matrix(0.05,0,0,0.05,53.900000000000006,0)" xlink:href="#U"/><use transform="matrix(0.05,0,0,0.05,58.900000000000006,0)" xlink:href="#V"/><use transform="matrix(0.05,0,0,0.05,62.85,0)" xlink:href="#T"/><use transform="matrix(0.05,0,0,0.05,72.85000000000001,0)" xlink:href="#S"/></g><g id="F"><use transform="matrix(0.05,0,0,0.05,0,0)" xlink:href="#S"/><use transform="matrix(0.05,0,0,0.05,10,0)" xlink:href="#T"/><use transform="matrix(0.05,0,0,0.05,20,0)" xlink:href="#S"/><use transform="matrix(0.05,0,0,0.05,30,0)" xlink:href="#al"/><use transform="matrix(0.05,0,0,0.05,35.95,0)" xlink:href="#am"/><use transform="matrix(0.05,0,0,0.05,48.900000000000006,0)" xlink:href="#ae"/><use transform="matrix(0.05,0,0,0.05,54.85,0)" xlink:href="#V"/><use transform="matrix(0.05,0,0,0.05,58.80000000000001,0)" xlink:href="#U"/><use transform="matrix(0.05,0,0,0.05,63.80000000000001,0)" xlink:href="#U"/><use transform="matrix(0.05,0,0,0.05,68.80000000000001,0)" xlink:href="#ab"/><use transform="matrix(0.05,0,0,0.05,78.80000000000001,0)" xlink:href="#S"/></g><g id="G"><use transform="matrix(0.05,0,0,0.05,0,0)" xlink:href="#U"/><use transform="matrix(0.05,0,0,0.05,5,0)" xlink:href="#ab"/><use transform="matrix(0.05,0,0,0.05,15,0)" xlink:href="#ag"/><use transform="matrix(0.05,0,0,0.05,24,0)" xlink:href="#U"/></g><g id="H"><use transform="matrix(0.05,0,0,0.05,0,0)" xlink:href="#ao"/><use transform="matrix(0.05,0,0,0.05,14.950000000000001,0)" xlink:href="#R"/><use transform="matrix(0.05,0,0,0.05,24.950000000000003,0)" xlink:href="#ae"/><use transform="matrix(0.05,0,0,0.05,30.900000000000002,0)" xlink:href="#Y"/></g><g id="I"><use transform="matrix(0.05,0,0,0.05,0,0)" xlink:href="#af"/><use transform="matrix(0.05,0,0,0.05,5,0)" xlink:href="#T"/><use transform="matrix(0.05,0,0,0.05,15,0)" xlink:href="#ae"/><use transform="matrix(0.05,0,0,0.05,20.95,0)" xlink:href="#ao"/></g><g id="J"><use transform="matrix(0.05,0,0,0.05,0,0)" xlink:href="#ao"/><use transform="matrix(0.05,0,0,0.05,14.950000000000001,0)" xlink:href="#R"/><use transform="matrix(0.05,0,0,0.05,24.950000000000003,0)" xlink:href="#ae"/><use transform="matrix(0.05,0,0,0.05,30.900000000000002,0)" xlink:href="#aj"/><use transform="matrix(0.05,0,0,0.05,40.900000000000006,0)" xlink:href="#V"/><use transform="matrix(0.05,0,0,0.05,44.85000000000001,0)" xlink:href="#S"/><use transform="matrix(0.05,0,0,0.05,54.85,0)" xlink:href="#R"/><use transform="matrix(0.05,0,0,0.05,64.85000000000001,0)" xlink:href="#ac"/></g><g id="K"><use transform="matrix(0.05,0,0,0.05,0,0)" xlink:href="#W"/><use transform="matrix(0.05,0,0,0.05,10,0)" xlink:href="#ae"/><use transform="matrix(0.05,0,0,0.05,15.949999999999998,0)" xlink:href="#R"/><use transform="matrix(0.05,0,0,0.05,25.950000000000003,0)" xlink:href="#am"/><use transform="matrix(0.05,0,0,0.05,38.9,0)" xlink:href="#V"/><use transform="matrix(0.05,0,0,0.05,42.85,0)" xlink:href="#S"/><use transform="matrix(0.05,0,0,0.05,52.85,0)" xlink:href="#aj"/></g><path fill="#333" d="M27 0v-27h64v-190l-56 39v-29l58-41h29v221h61V0H27" id="ap"/><use transform="matrix(0.03765432098765432,0,0,0.03765432098765432,0,0)" xlink:href="#ap" id="L"/><path fill="#333" d="M101-251c68 0 85 55 85 127S166 4 100 4C33 4 14-52 14-124c0-73 17-127 87-127zm-1 229c47 0 54-49 54-102s-4-102-53-102c-51 0-55 48-55 102 0 53 5 102 54 102" id="aq"/><path fill="#333" d="M33 0v-38h34V0H33" id="ar"/><path fill="#333" d="M80-196l47-18 7 23-49 13 32 44-20 13-27-46-27 45-21-12 33-44-49-13 8-23 47 19-2-53h23" id="as"/><g id="M"><use transform="matrix(0.03765432098765432,0,0,0.03765432098765432,0,0)" xlink:href="#aq"/><use transform="matrix(0.03765432098765432,0,0,0.03765432098765432,7.530864197530864,0)" xlink:href="#ar"/><use transform="matrix(0.03765432098765432,0,0,0.03765432098765432,11.296296296296296,0)" xlink:href="#ar"/><use transform="matrix(0.03765432098765432,0,0,0.03765432098765432,15.061728395061728,0)" xlink:href="#as"/></g><g id="N"><use transform="matrix(0.03765432098765432,0,0,0.03765432098765432,0,0)" xlink:href="#aq"/><use transform="matrix(0.03765432098765432,0,0,0.03765432098765432,7.530864197530864,0)" xlink:href="#ar"/><use transform="matrix(0.03765432098765432,0,0,0.03765432098765432,11.296296296296296,0)" xlink:href="#ar"/><use transform="matrix(0.03765432098765432,0,0,0.03765432098765432,15.061728395061728,0)" xlink:href="#ap"/></g><g id="O"><use transform="matrix(0.05,0,0,0.05,0,0)" xlink:href="#R"/><use transform="matrix(0.05,0,0,0.05,10,0)" xlink:href="#W"/><use transform="matrix(0.05,0,0,0.05,20,0)" xlink:href="#W"/><use transform="matrix(0.05,0,0,0.05,30,0)" xlink:href="#V"/><use transform="matrix(0.05,0,0,0.05,33.95,0)" xlink:href="#U"/><use transform="matrix(0.05,0,0,0.05,38.95,0)" xlink:href="#V"/><use transform="matrix(0.05,0,0,0.05,42.900000000000006,0)" xlink:href="#T"/><use transform="matrix(0.05,0,0,0.05,52.900000000000006,0)" xlink:href="#S"/></g><g id="P"><use transform="matrix(0.05,0,0,0.05,0,0)" xlink:href="#ah"/><use transform="matrix(0.05,0,0,0.05,9,0)" xlink:href="#U"/><use transform="matrix(0.05,0,0,0.05,14,0)" xlink:href="#R"/><use transform="matrix(0.05,0,0,0.05,24,0)" xlink:href="#ae"/><use transform="matrix(0.05,0,0,0.05,29.950000000000003,0)" xlink:href="#U"/></g><g id="Q"><use transform="matrix(0.05,0,0,0.05,0,0)" xlink:href="#ab"/><use transform="matrix(0.05,0,0,0.05,10,0)" xlink:href="#S"/><use transform="matrix(0.05,0,0,0.05,20,0)" xlink:href="#W"/></g></defs></g></svg>